<?xml version="1.0" encoding="utf-8"?>
<!-- Generator: Adobe Illustrator 19.2.1, SVG Export Plug-In . SVG Version: 6.00 Build 0)  -->
<svg version="1.0" id="Layer_1" xmlns="http://www.w3.org/2000/svg" xmlns:xlink="http://www.w3.org/1999/xlink" x="0px" y="0px"
	 viewBox="0 0 64.5 66.5833359" enable-background="new 0 0 64.5 66.5833359" xml:space="preserve">
<g>
	<path fill="none" d="M8.3808088,50.1044312C8.673624,36.0665398,18.0899696,20.424593,31.5234947,19.5833321
		c13.0237312,1.3740311,22.1656761,16.6513557,22.4484711,30.5424767"/>
	<path d="M1.6762695,18.7944336c0.2651367-0.3520508,0.4438477-0.5297852,0.5361328-0.5336914
		c0.0917969-0.0039062,2.1967773,1.090332,6.3144531,3.2822266c4.1176758,2.1923828,6.7851562,3.5864258,8.0024414,4.1821289
		l0.3105469-0.4111328c0.2280273,0.1137695,0.4360352,0.2416992,0.6230469,0.3823242
		c0.1674805,0.1259766,0.2724609,0.2299805,0.315918,0.3110352c0.043457,0.0820312,0.0356445,0.1616211-0.0229492,0.2392578
		l-1.4619141,1.9384766c-0.2578125-0.1313477-0.4833984-0.2695312-0.6772461-0.4155273
		c-0.140625-0.105957-0.2299805-0.1992188-0.269043-0.2797852c-0.0385742-0.0805664-0.0297852-0.1582031,0.0268555-0.2329102
		l0.1899414-0.2524414c-0.6396484-0.3891602-1.8945312-1.1015625-3.7661133-2.1367188l-1.5883789,2.1064453
		c1.5126953,1.4829102,2.5571289,2.4750977,3.1318359,2.9775391l0.3271484-0.4345703
		c0.2290039,0.1137695,0.4370117,0.2416992,0.6240234,0.3828125c0.1669922,0.1259766,0.2724609,0.2294922,0.315918,0.3110352
		s0.0356445,0.1611328-0.0229492,0.2392578l-1.2963867,1.71875c-0.2553711-0.1342773-0.4799805-0.2744141-0.6743164-0.4204102
		c-0.1401367-0.105957-0.2290039-0.1987305-0.2680664-0.2797852c-0.0390625-0.0805664-0.0302734-0.1582031,0.0258789-0.2329102
		l0.2045898-0.2709961c-1.0615234-1.1225586-3.0009766-3.1201172-5.8188477-5.9931641
		c-2.8178711-2.8725586-4.4257812-4.5463867-4.8222656-5.0209961C1.5400391,19.4750977,1.453125,19.0898438,1.6762695,18.7944336z
		 M9.0400391,25.8354492l1.328125-1.7607422c-4.2963867-2.3510742-6.4604492-3.5058594-6.4921875-3.4638672
		S5.5654297,22.394043,9.0400391,25.8354492z"/>
	<path d="M21.9824219,21.0395508c0.5805664-0.3798828,0.8920898-1.043457,0.9335938-1.9912109
		c0.4248047,0.2714844,0.7749023,0.6181641,1.0498047,1.0380859c0.2568359,0.3920898,0.2514648,0.8432617-0.0161133,1.3535156
		c-0.2670898,0.5102539-0.6967773,0.9580078-1.2871094,1.3447266c-0.9433594,0.6171875-1.949707,0.5961914-3.0200195-0.0639648
		c-1.0703125-0.659668-2.4257812-2.2436523-4.0664062-4.7504883c-1.8291016-2.7944336-2.9116211-5.0214844-3.2475586-6.6816406
		c-0.3364258-1.6606445,0.0063477-2.8251953,1.0273438-3.4931641c0.5678711-0.3720703,1.0610352-0.5546875,1.4799805-0.5488281
		c0.4189453,0.0063477,0.7817383,0.2441406,1.0883789,0.7128906c0.2524414,0.3852539,0.4121094,0.8256836,0.4804688,1.3212891
		C15.4233398,9.0629883,14.6630859,9.1303711,14.125,9.4829102c-0.5551758,0.362793-0.6918945,1.0649414-0.4111328,2.1064453
		s1.090332,2.5849609,2.4287109,4.6293945c1.4804688,2.2626953,2.6582031,3.7397461,3.5332031,4.4321289
		C20.5507812,21.34375,21.3193359,21.4731445,21.9824219,21.0395508z"/>
	<path d="M22.1982422,13.7832031c-0.9057617-3.1704102-1.2680664-5.6000977-1.0869141-7.2880859
		c0.1806641-1.6879883,0.8300781-2.6918945,1.9472656-3.0107422c1.0205078-0.2915039,1.953125,0.0361328,2.7998047,0.9829102
		c0.8461914,0.9462891,1.6850586,2.8759766,2.5170898,5.7890625c0.9052734,3.1713867,1.2680664,5.6005859,1.0869141,7.2885742
		c-0.1811523,1.6884766-0.8305664,2.6914062-1.9477539,3.0107422c-1.0200195,0.2915039-1.9526367-0.0341797-2.7978516-0.9765625
		C23.8720703,18.6367188,23.0322266,16.7045898,22.1982422,13.7832031z M23.2587891,12.2792969
		c0.7675781,2.6879883,1.4633789,4.4804688,2.0864258,5.3774414s1.2685547,1.2504883,1.9360352,1.0595703
		c0.6186523-0.1767578,0.940918-0.8125,0.9667969-1.9082031c0.0258789-1.0952148-0.2856445-2.777832-0.9331055-5.0473633
		c-0.7773438-2.7202148-1.4750977-4.5205078-2.0932617-5.4013672c-0.6186523-0.8808594-1.262207-1.2260742-1.9291992-1.0356445
		c-0.6186523,0.1772461-0.9414062,0.8129883-0.9672852,1.9082031C22.2998047,8.3271484,22.6103516,10.0102539,23.2587891,12.2792969
		z"/>
	<path d="M33.4731445,2.5219727l4.9433594,0.8012695c0.2192383,0.0356445,0.3588867,0.1259766,0.4179688,0.2714844
		c0.059082,0.1450195,0.0571289,0.4160156-0.0073242,0.8125c-0.0820312,0.5043945-0.2392578,1.0126953-0.4726562,1.5263672
		c-0.6245117-0.7543945-1.5737305-1.2348633-2.8476562-1.4414062l-0.5024414-0.0810547
		c-0.1782227,0.9287109-0.5126953,2.9052734-1.0029297,5.9291992l2.8520508,0.4624023
		c-0.0019531,0.3300781-0.0317383,0.6733398-0.0893555,1.0283203c-0.0375977,0.2314453-0.0820312,0.3833008-0.1328125,0.4555664
		c-0.0512695,0.0722656-0.1328125,0.0991211-0.2446289,0.0810547l-2.6445312-0.4287109
		c-0.5454102,3.3881836-0.8833008,5.559082-1.0141602,6.512207l0.9296875,0.1508789
		c0.0058594,0.2553711-0.0102539,0.4990234-0.0473633,0.7299805c-0.0336914,0.2070312-0.0761719,0.3481445-0.1279297,0.4248047
		c-0.0517578,0.0761719-0.1259766,0.1064453-0.222168,0.0908203l-2.7143555-0.4399414
		c-0.0043945-0.2890625,0.0131836-0.5532227,0.0517578-0.7929688c0.0283203-0.1733398,0.0688477-0.2958984,0.121582-0.3681641
		c0.0532227-0.0712891,0.1259766-0.1000977,0.2182617-0.0849609l0.4277344,0.0688477
		c0.2128906-1.144043,0.7041016-4.0869141,1.4731445-8.8291016c0.4106445-2.5361328,0.6958008-4.3808594,0.8554688-5.5336914
		L33.081543,3.7685547c-0.0048828-0.2885742,0.0126953-0.5532227,0.0517578-0.7929688
		c0.027832-0.1733398,0.0683594-0.2958984,0.121582-0.3681641C33.3081055,2.5356445,33.3808594,2.5073242,33.4731445,2.5219727z"/>
	<path d="M43.6357422,5.1601562l4.4692383,2.2578125c0.1982422,0.1000977,0.3032227,0.2285156,0.3168945,0.3847656
		c0.0126953,0.1567383-0.0722656,0.4140625-0.2529297,0.7729492C47.9384766,9.03125,47.6347656,9.46875,47.2568359,9.887207
		c-0.3671875-0.9072266-1.1264648-1.6523438-2.2788086-2.234375l-0.4541016-0.2294922
		c-0.4511719,0.831543-1.3671875,2.6142578-2.7480469,5.3486328l2.5786133,1.3037109
		c-0.1015625,0.3134766-0.2338867,0.6313477-0.3964844,0.9526367c-0.1054688,0.2089844-0.1938477,0.340332-0.2641602,0.394043
		c-0.0708008,0.0532227-0.1567383,0.0546875-0.2573242,0.003418l-2.3916016-1.2084961
		c-1.5439453,3.0649414-2.5224609,5.0322266-2.9350586,5.9018555l0.8398438,0.4243164
		c-0.0712891,0.2451172-0.159668,0.4726562-0.265625,0.6816406c-0.0942383,0.1865234-0.1777344,0.3085938-0.25,0.3657227
		c-0.0727539,0.0571289-0.1523438,0.0639648-0.2397461,0.0200195l-2.4536133-1.2402344
		c0.0830078-0.2768555,0.1791992-0.5234375,0.2885742-0.7397461c0.0795898-0.1572266,0.1552734-0.2617188,0.2275391-0.3144531
		c0.0722656-0.0522461,0.1503906-0.0576172,0.2338867-0.015625l0.3862305,0.1953125
		c0.5493164-1.0258789,1.9072266-3.6831055,4.0737305-7.9707031c1.1582031-2.293457,1.9882812-3.965332,2.4882812-5.0161133
		l-0.5532227-0.2797852c0.0825195-0.2768555,0.1787109-0.5234375,0.2885742-0.7402344
		c0.0791016-0.1567383,0.1552734-0.2612305,0.2275391-0.3134766C43.4741211,5.1230469,43.5522461,5.1176758,43.6357422,5.1601562z"
		/>
	<path d="M52.0791016,10.1362305l3.7685547,3.2963867c0.1669922,0.1464844,0.2382812,0.296875,0.2119141,0.4516602
		c-0.0273438,0.1547852-0.171875,0.3833008-0.4365234,0.6850586c-0.3359375,0.3847656-0.7382812,0.7329102-1.2089844,1.0444336
		c-0.1298828-0.9702148-0.6816406-1.8798828-1.6533203-2.7294922l-0.3828125-0.3354492
		c-0.6430664,0.6943359-1.8886719,2.1005859-3.7373047,4.2202148l2.3027344,2.0141602
		c-0.1767578,0.2788086-0.3833008,0.5541992-0.6206055,0.824707c-0.1542969,0.1762695-0.2714844,0.2817383-0.3535156,0.315918
		s-0.1650391,0.0141602-0.25-0.0600586l-2.1489258-1.8793945c-2.3774414,2.7236328-3.824707,4.3994141-4.3413086,5.0258789
		l0.6162109,0.5390625c0.9365234,0.8193359,1.8647461,1.2416992,2.784668,1.2680664
		c-0.2089844,0.4287109-0.4760742,0.8286133-0.8007812,1.2006836c-0.2426758,0.2773438-0.4633789,0.4433594-0.6611328,0.4975586
		c-0.1982422,0.0546875-0.4277344-0.0322266-0.6889648-0.2602539l-3.8300781-3.3334961
		c0.1489258-0.2475586,0.3061523-0.4658203,0.4711914-0.6552734c0.1103516-0.1254883,0.2070312-0.2045898,0.2905273-0.237793
		c0.0830078-0.0327148,0.159668-0.0185547,0.2304688,0.0429688l0.3251953,0.284668
		c0.7919922-0.8637695,2.769043-3.1040039,5.9321289-6.7202148c1.6918945-1.934082,2.9091797-3.3481445,3.6547852-4.2421875
		l-0.4667969-0.4077148c0.1499023-0.2475586,0.3041992-0.4628906,0.4633789-0.6459961
		c0.1162109-0.1318359,0.2148438-0.2143555,0.2988281-0.2470703C51.9316406,10.0600586,52.0087891,10.074707,52.0791016,10.1362305z
		"/>
	<path d="M59.0986328,16.965332l2.9814453,4.0229492c0.1328125,0.1787109,0.1689453,0.3408203,0.1103516,0.4863281
		s-0.25,0.3374023-0.5732422,0.5766602c-0.4101562,0.3041992-0.8779297,0.5581055-1.4023438,0.7631836
		c0.078125-0.9755859-0.265625-1.9819336-1.0351562-3.019043l-0.3017578-0.409668
		c-0.7773438,0.5419922-2.2929688,1.6508789-4.5507812,3.328125l1.8222656,2.4584961
		c-0.2324219,0.2348633-0.4931641,0.4594727-0.7822266,0.6738281c-0.1884766,0.1396484-0.3261719,0.2172852-0.4140625,0.2333984
		c-0.0869141,0.0161133-0.1640625-0.0214844-0.2314453-0.1123047l-1.6982422-2.293457
		c-2.9038086,2.1552734-4.6738281,3.484375-5.3125,3.9868164l0.487793,0.6577148
		c0.7407227,0.9995117,1.5576172,1.6103516,2.4511719,1.8320312c-0.2958984,0.3735352-0.6420898,0.7080078-1.0385742,1.0024414
		c-0.2958984,0.21875-0.5458984,0.3339844-0.7509766,0.3457031c-0.2060547,0.0112305-0.4111328-0.1230469-0.6181641-0.4018555
		l-3.0332031-4.0717773c0.1982422-0.2099609,0.3984375-0.3896484,0.6000977-0.5395508
		c0.1342773-0.0996094,0.2460938-0.1567383,0.3344727-0.1713867c0.0878906-0.0141602,0.1601562,0.0161133,0.215332,0.0913086
		l0.2578125,0.3481445c0.9580078-0.6757812,3.3666992-2.4438477,7.2270508-5.3041992
		c2.0634766-1.5292969,3.5556641-2.6518555,4.4736328-3.3666992l-0.3691406-0.4980469
		c0.1992188-0.2099609,0.3955078-0.387207,0.5908203-0.5322266c0.140625-0.1044922,0.2558594-0.1640625,0.34375-0.1787109
		C58.9707031,16.8598633,59.0429688,16.8901367,59.0986328,16.965332z"/>
</g>
<path d="M53.7166595,33.3187141c0.5194893,10.9198647-12.0309792,20.6897736-22.515192,20.8489113
	c-10.5117817,0.1595612-23.3209572-9.275856-23.1460686-20.1462326"/>
<ellipse cx="56.040966" cy="41.1905441" rx="5.201221" ry="3.6258616"/>
<ellipse fill="#FFFFFF" cx="56.1526489" cy="41.1666679" rx="2.1806843" ry="1.25"/>
<g>
	<path d="M25.3554688,62.5117188c0.6953125,0,1.3203125-0.1796875,1.875-0.5390625
		c0.2070312,0.2148438,0.3105469,0.4394531,0.3105469,0.6738281c0,0.21875-0.2519531,0.3935547-0.7558594,0.5244141
		s-1.109375,0.1962891-1.8164062,0.1962891c-1.1289062,0-1.9609375-0.265625-2.4960938-0.796875
		s-0.8027344-1.4960938-0.8027344-2.8945312c0-1.5585938,0.3144531-2.7050781,0.9433594-3.4394531
		s1.5546875-1.1015625,2.7773438-1.1015625c0.6796875,0,1.1933594,0.0546875,1.5410156,0.1640625
		s0.5214844,0.2949219,0.5214844,0.5566406c0,0.2148438-0.1074219,0.4277344-0.3222656,0.6386719
		c-0.703125-0.3359375-1.3769531-0.5039062-2.0214844-0.5039062c-0.6640625,0-1.1640625,0.2392578-1.5,0.7177734
		s-0.5039062,1.2880859-0.5039062,2.4287109c0,1.2617188,0.1767578,2.1396484,0.5302734,2.6337891
		S24.5625,62.5117188,25.3554688,62.5117188z"/>
	<path d="M33.6176758,60.8945312c0,0.7851562,0.03125,1.2675781,0.09375,1.4472656s0.1875,0.2597656,0.375,0.2402344
		c0.046875,0.09375,0.0703125,0.1855469,0.0703125,0.2753906c0,0.1445312-0.1113281,0.2558594-0.3339844,0.3339844
		s-0.4394531,0.1171875-0.6503906,0.1171875c-0.1367188,0-0.2363281-0.0273438-0.2988281-0.0820312
		s-0.1601562-0.203125-0.2929688-0.4453125c-0.3125,0.1796875-0.6357422,0.3222656-0.9697266,0.4277344
		s-0.6845703,0.1582031-1.0517578,0.1582031c-0.484375,0-0.8603516-0.1337891-1.1279297-0.4013672
		s-0.4013672-0.7587891-0.4013672-1.4736328c0-1.3945312-0.0068359-2.2412109-0.0205078-2.5400391
		s-0.0458984-0.5048828-0.0966797-0.6181641s-0.1171875-0.1835938-0.1992188-0.2109375s-0.171875-0.0410156-0.2695312-0.0410156
		C28.3930664,58,28.3676758,57.9082031,28.3676758,57.8066406c0-0.1367188,0.0957031-0.2304688,0.2871094-0.28125
		s0.4570312-0.0761719,0.796875-0.0761719c0.2695312,0,0.4541016,0.0166016,0.5537109,0.0498047
		s0.1621094,0.0878906,0.1875,0.1640625s0.0380859,0.3330078,0.0380859,0.7705078v2.2089844
		c0,0.8007812,0.0888672,1.3242188,0.2666016,1.5703125s0.4248047,0.3691406,0.7412109,0.3691406
		c0.2226562,0,0.4394531-0.046875,0.6503906-0.140625s0.3525391-0.2246094,0.4248047-0.3925781
		s0.1083984-0.4921875,0.1083984-0.9726562c0-1.1171875-0.0048828-1.8203125-0.0146484-2.109375
		s-0.0371094-0.4951172-0.0820312-0.6181641s-0.1044922-0.1982422-0.1787109-0.2255859s-0.1699219-0.0410156-0.2871094-0.0410156
		C31.809082,58,31.7836914,57.9082031,31.7836914,57.8066406c0-0.1367188,0.1005859-0.2304688,0.3017578-0.28125
		s0.4521484-0.0761719,0.7529297-0.0761719c0.2695312,0,0.4541016,0.0166016,0.5537109,0.0498047
		s0.1621094,0.0927734,0.1875,0.1787109s0.0380859,0.3476562,0.0380859,0.7851562V60.8945312z"/>
	<path d="M36.6879883,57.4492188c0.0234375,0.1640625,0.0234375,0.3359375,0,0.515625
		c0.2890625-0.1796875,0.5996094-0.3251953,0.9316406-0.4365234s0.7050781-0.1669922,1.1191406-0.1669922
		c0.7109375,0,1.2402344,0.1953125,1.5878906,0.5859375s0.5214844,1.0410156,0.5214844,1.9511719
		c0,1.1796875-0.2353516,2.0527344-0.7060547,2.6191406s-1.1669922,0.8496094-2.0888672,0.8496094
		c-0.25,0-0.4609375-0.0136719-0.6328125-0.0410156s-0.3144531-0.0585938-0.4277344-0.09375
		c0.0039062,0.7460938,0.0195312,1.4101562,0.046875,1.9921875h0.7675781
		c0.046875,0.1015625,0.0703125,0.2109375,0.0703125,0.328125c0,0.1054688-0.0214844,0.1777344-0.0644531,0.2167969
		s-0.125,0.0585938-0.2460938,0.0585938h-2.4199219c-0.0507812-0.125-0.0761719-0.2421875-0.0761719-0.3515625
		c0-0.0859375,0.0214844-0.1494141,0.0644531-0.1904297s0.1132812-0.0615234,0.2109375-0.0615234h0.4042969
		c0.03125-0.5820312,0.046875-1.3710938,0.046875-2.3671875v-2.4960938c0-1.1523438-0.0449219-1.8203125-0.1347656-2.0039062
		s-0.2617188-0.2753906-0.515625-0.2753906c-0.0507812-0.109375-0.0761719-0.2226562-0.0761719-0.3398438
		c0-0.1054688,0.0410156-0.1728516,0.1230469-0.2021484S35.7739258,57.4804688,36.6879883,57.4492188z M36.9926758,62.2480469
		c0.1445312,0.0976562,0.3144531,0.1777344,0.5097656,0.2402344s0.4121094,0.09375,0.6503906,0.09375
		c0.5195312,0,0.8789062-0.1582031,1.078125-0.4746094s0.2988281-0.8632812,0.2988281-1.640625
		c0-0.8476562-0.1044922-1.4462891-0.3134766-1.7958984s-0.5458984-0.5244141-1.0107422-0.5244141
		c-0.2304688,0-0.4404297,0.0449219-0.6298828,0.1347656s-0.3339844,0.2412109-0.4335938,0.4541016
		s-0.1494141,0.5107422-0.1494141,0.8935547V62.2480469z"/>
</g>
<line fill="none" x1="10.166667" y1="66.9166641" x2="9.620101" y2="68.2055664"/>
<line fill="none" x1="8.0977011" y1="65.25" x2="-2.5697942" y2="64.4166031"/>
<line fill="none" x1="53.7773628" y1="66.25" x2="10.166667" y2="66.9166641"/>
<line fill="none" x1="46.75" y1="84.25" x2="46.75" y2="83.25"/>
<line fill="none" x1="17.5" y1="66.5833359" x2="17.5" y2="65.5833359"/>
<g>
</g>
<g>
</g>
<g>
</g>
<g>
</g>
<g>
</g>
<g>
</g>
<g>
</g>
<g>
</g>
<g>
</g>
<g>
</g>
<g>
</g>
<g>
</g>
<g>
</g>
<g>
</g>
<g>
</g>
</svg>
