<?xml version="1.0" encoding="utf-8"?>
<!-- Generator: Adobe Illustrator 19.2.1, SVG Export Plug-In . SVG Version: 6.00 Build 0)  -->
<svg version="1.1" id="Layer_1" xmlns="http://www.w3.org/2000/svg" xmlns:xlink="http://www.w3.org/1999/xlink" x="0px" y="0px"
	 viewBox="0 0 60.5 53.3" style="enable-background:new 0 0 60.5 53.3;" xml:space="preserve">
<style type="text/css">
	.st0{fill:none;}
	.st1{fill:#001B9A;}
</style>
<g>
	<rect x="-14.5" class="st0" width="68.4" height="35.1"/>
</g>
<g>
	<path class="st1" d="M4.6,3.5c0.9-0.2,2.4-0.3,3.8-0.3c2.1,0,3.4,0.4,4.4,1.2C13.7,5,14.2,6,14.2,7.2c0,1.6-1,2.9-2.7,3.6v0
		c1.5,0.4,3.3,1.7,3.3,4.1c0,1.4-0.6,2.4-1.4,3.2c-1.1,1-3,1.5-5.6,1.5c-1.4,0-2.5-0.1-3.2-0.2V3.5z M6.7,10.2h1.9
		c2.2,0,3.5-1.2,3.5-2.7c0-1.9-1.4-2.6-3.6-2.6c-1,0-1.5,0.1-1.8,0.1V10.2z M6.7,17.9C7.1,18,7.7,18,8.4,18c2.2,0,4.2-0.8,4.2-3.1
		c0-2.2-1.9-3.1-4.2-3.1H6.7V17.9z"/>
	<path class="st1" d="M17.6,3.5c0.9-0.2,2.4-0.3,3.8-0.3c2.1,0,3.4,0.4,4.4,1.2C26.7,5,27.2,6,27.2,7.2c0,1.6-1,2.9-2.7,3.6v0
		c1.5,0.4,3.3,1.7,3.3,4.1c0,1.4-0.6,2.4-1.4,3.2c-1.1,1-3,1.5-5.6,1.5c-1.4,0-2.5-0.1-3.2-0.2V3.5z M19.7,10.2h1.9
		c2.2,0,3.5-1.2,3.5-2.7c0-1.9-1.4-2.6-3.6-2.6c-1,0-1.5,0.1-1.8,0.1V10.2z M19.7,17.9c0.4,0.1,1,0.1,1.8,0.1c2.2,0,4.2-0.8,4.2-3.1
		c0-2.2-1.9-3.1-4.2-3.1h-1.7V17.9z"/>
	<path class="st1" d="M33.2,14.4l-1.7,5.1h-2.2l5.5-16.2h2.5l5.5,16.2h-2.2l-1.7-5.1H33.2z M38.5,12.8l-1.6-4.7
		c-0.4-1.1-0.6-2-0.8-3h0c-0.2,1-0.5,1.9-0.8,2.9l-1.6,4.7H38.5z"/>
	<path class="st1" d="M56.2,19c-0.8,0.4-2.3,0.8-4.3,0.8c-4.6,0-8-2.9-8-8.2C44,6.5,47.4,3,52.4,3c2,0,3.3,0.4,3.8,0.7l-0.5,1.7
		c-0.8-0.4-1.9-0.7-3.3-0.7c-3.8,0-6.3,2.4-6.3,6.7c0,4,2.3,6.5,6.2,6.5c1.3,0,2.6-0.3,3.4-0.7L56.2,19z"/>
</g>
<path class="st1" d="M42.9,47.9H29.4V19.5h13.5C42.9,19.5,42.9,19.5,42.9,47.9z"/>
<rect x="44" y="18.8" class="st1" width="12.2" height="29.1"/>
<rect x="44.4" y="19" class="st1" width="11.8" height="0.6"/>
<rect x="30.8" y="17.8" class="st1" width="10.9" height="1.7"/>
<path class="st1" d="M26.6,17.7v1.2V17.7z"/>
<path class="st1" d="M25,17.7"/>
<rect x="12.2" y="17.9" class="st1" width="1.5" height="1"/>
<rect x="4.6" y="18.2" class="st1" width="9.9" height="29.7"/>
<rect x="11.4" y="17.6" class="st1" width="1.5" height="1.4"/>
<rect x="44" y="16.6" class="st1" width="3.9" height="2.4"/>
<rect x="42.8" y="13.4" transform="matrix(-1.836970e-16 1 -1 -1.836970e-16 59.3437 -30.6563)" class="st1" width="4.5" height="2"/>
<rect x="25.2" y="17.7" class="st1" width="0.7" height="1.6"/>
<rect x="52.8" y="18" class="st1" width="3.4" height="0.9"/>
<path class="st1" d="M56.2,19.3h-7.4v-2c0.8,0.3,2.2,0.8,4.1,0.7c1.5-0.1,2.6-0.5,3.3-0.9C56.2,17.9,56.2,18.6,56.2,19.3z"/>
<rect x="17.6" y="18.2" class="st1" width="9.9" height="29.7"/>
<path class="st1" d="M14.5,16"/>
<path class="st1" d="M27.5,18.2h-1.6v-1.9c0.5,0,1.1,0,1.6,0l0,0c0,0.3,0,0.6,0,0.9C27.5,17.5,27.5,17.9,27.5,18.2z"/>
<rect x="12.9" y="16.3" class="st1" width="1.6" height="1.9"/>
<path class="st1" d="M27.6,16.7"/>
<path class="st1" d="M43.3,13"/>
<g>
</g>
<g>
</g>
<g>
</g>
<g>
</g>
<g>
</g>
<g>
</g>
<g>
</g>
<g>
</g>
<g>
</g>
<g>
</g>
<g>
</g>
<g>
</g>
<g>
</g>
<g>
</g>
<g>
</g>
</svg>
