<?xml version="1.0" encoding="utf-8"?>
<!-- Generator: Adobe Illustrator 19.2.1, SVG Export Plug-In . SVG Version: 6.00 Build 0)  -->
<svg version="1.0" id="Layer_1" xmlns="http://www.w3.org/2000/svg" xmlns:xlink="http://www.w3.org/1999/xlink" x="0px" y="0px"
	 viewBox="0 0 60.5 53.3012238" enable-background="new 0 0 60.5 53.3012238" xml:space="preserve">
<g>
	<rect x="-14.507987" fill="none" width="68.3706055" height="35.1437683"/>
</g>
<path fill="#BA001A" d="M42.8953133,47.908371H29.3529415V19.4886627h13.5423717
	c0,0.0001202,0.0000153,0.2164955,0.0000153,0.2166157C42.8954659,21.6830978,42.8954582,45.8997154,42.8953133,47.908371z"/>
<rect x="44.0127068" y="18.8455963" fill="#BA001A" width="12.1843767" height="29.0627747"/>
<rect x="44.375" y="18.9677181" fill="#BA001A" width="11.8220825" height="0.5649414"/>
<rect x="30.8444004" y="17.7790527" fill="#BA001A" width="10.8883467" height="1.70961"/>
<path fill="#BA001A" d="M26.6011963,17.7362213v1.1875V17.7362213z"/>
<path fill="#BA001A" d="M24.958334,17.7362213"/>
<rect x="12.1666956" y="17.9237213" fill="#BA001A" width="1.497" height="1"/>
<rect x="4.5646935" y="18.2214966" fill="#BA001A" width="9.9475136" height="29.6868744"/>
<rect x="11.3960819" y="17.5718842" fill="#BA001A" width="1.5191141" height="1.3958334"/>
<rect x="44.0127068" y="16.5903893" fill="#BA001A" width="3.9491775" height="2.3773296"/>
<rect x="42.753334" y="13.3564291" transform="matrix(-1.836970e-16 1 -1 -1.836970e-16 59.3437271 -30.6562748)" fill="#BA001A" width="4.4933281" height="1.9745941"/>
<rect x="25.192379" y="17.7362213" fill="#BA001A" width="0.7044087" height="1.5955532"/>
<rect x="52.7882652" y="18.0281334" fill="#BA001A" width="3.4088173" height="0.9395854"/>
<path fill="#BA001A" d="M56.1970825,19.3317757h-7.4400101v-2.018364c0.7743683,0.3188324,2.244545,0.8021202,4.1179276,0.6728096
	c1.4703293-0.10149,2.6136017-0.5406151,3.3125-0.875C56.1906967,17.8514061,56.1938858,18.5915909,56.1970825,19.3317757z"/>
<rect x="17.5931778" y="18.2214985" fill="#BA001A" width="9.9475145" height="29.6868725"/>
<path fill="#BA001A" d="M14.5416641,16.0070534"/>
<path fill="#BA001A" d="M27.5406952,18.2214966h-1.6075134v-1.9412575c0.5358353,0,1.0716782,0,1.6075134,0l0,0
	c0,0.2874107,0,0.5748215,0,0.8622322C27.5406952,17.5021477,27.5406952,17.8618202,27.5406952,18.2214966z"/>
<rect x="12.9046993" y="16.280241" fill="#BA001A" width="1.6075076" height="1.9412589"/>
<path fill="#BA001A" d="M27.5625,16.7049713"/>
<path fill="#BA001A" d="M43.2588272,12.9712725"/>
<g>
	<path fill="#BA001A" d="M4.5688477,3.5272963C5.480957,3.3354018,6.9208984,3.1913588,8.3852539,3.1913588
		c2.0878906,0,3.4321289,0.3598633,4.4404297,1.1762693c0.8398438,0.6240234,1.34375,1.5839844,1.34375,2.855957
		c0,1.5600586-1.0317383,2.9282227-2.7358398,3.5522461v0.0483398c1.5361328,0.3837891,3.3359375,1.6557617,3.3359375,4.0561523
		c0,1.3920898-0.5517578,2.4482422-1.3681641,3.2402344c-1.1279297,1.0322266-2.9521484,1.512207-5.5922852,1.512207
		c-1.4399414,0-2.5444336-0.0961914-3.2402344-0.1918945V3.5272963z M6.6567383,10.1518078h1.8964844
		c2.2080078,0,3.5043945-1.1518555,3.5043945-2.7119141c0-1.8964844-1.4404297-2.640625-3.5527344-2.640625
		c-0.9599609,0-1.5117188,0.0722656-1.8481445,0.144043V10.1518078z M6.6567383,17.9047375
		c0.4082031,0.0717773,1.0083008,0.0957031,1.7524414,0.0957031c2.1601562,0,4.1523438-0.7919922,4.1523438-3.144043
		c0-2.2084961-1.8959961-3.1201172-4.1762695-3.1201172H6.6567383V17.9047375z"/>
	<path fill="#BA001A" d="M17.5766602,3.5272963c0.9121094-0.1918945,2.3520508-0.3359375,3.8164062-0.3359375
		c2.0878906,0,3.4321289,0.3598633,4.4404297,1.1762693c0.8398438,0.6240234,1.34375,1.5839844,1.34375,2.855957
		c0,1.5600586-1.0317383,2.9282227-2.7358398,3.5522461v0.0483398c1.5361328,0.3837891,3.3359375,1.6557617,3.3359375,4.0561523
		c0,1.3920898-0.5517578,2.4482422-1.3681641,3.2402344c-1.1279297,1.0322266-2.9521484,1.512207-5.5922852,1.512207
		c-1.4399414,0-2.5444336-0.0961914-3.2402344-0.1918945V3.5272963z M19.6645508,10.1518078h1.8964844
		c2.2080078,0,3.5043945-1.1518555,3.5043945-2.7119141c0-1.8964844-1.4404297-2.640625-3.5527344-2.640625
		c-0.9599609,0-1.5117188,0.0722656-1.8481445,0.144043V10.1518078z M19.6645508,17.9047375
		c0.4082031,0.0717773,1.0083008,0.0957031,1.7524414,0.0957031c2.1601562,0,4.1523438-0.7919922,4.1523438-3.144043
		c0-2.2084961-1.8959961-3.1201172-4.1762695-3.1201172h-1.7285156V17.9047375z"/>
	<path fill="#BA001A" d="M33.2006836,14.4003429l-1.6801758,5.0883789h-2.1601562l5.496582-16.1772461h2.5200195
		l5.5205078,16.1772461h-2.2324219l-1.7280273-5.0883789H33.2006836z M38.5048828,12.7680187l-1.5839844-4.65625
		c-0.3598633-1.0561523-0.6000977-2.0161133-0.8398438-2.9521484h-0.0483398
		c-0.2397461,0.9599609-0.5039062,1.9438477-0.815918,2.9282227l-1.5839844,4.6801758H38.5048828z"/>
	<path fill="#BA001A" d="M56.2177734,18.9608898c-0.7685547,0.3837891-2.3046875,0.7680664-4.2724609,0.7680664
		c-4.5605469,0-7.9926758-2.8803711-7.9926758-8.1850586c0-5.0644531,3.4321289-8.496582,8.4487305-8.496582
		c2.015625,0,3.2880859,0.4321289,3.8398438,0.7202148L55.7373047,5.471632
		c-0.7919922-0.3842773-1.9199219-0.6723633-3.2636719-0.6723633c-3.7929688,0-6.3134766,2.4243164-6.3134766,6.6728516
		c0,3.9604492,2.2802734,6.5043945,6.2167969,6.5043945c1.2724609,0,2.5683594-0.2641602,3.4082031-0.671875L56.2177734,18.9608898z
		"/>
</g>
<line fill="#BA001A" x1="29" y1="19.8012218" x2="44" y2="19.8012218"/>
<g>
</g>
<g>
</g>
<g>
</g>
<g>
</g>
<g>
</g>
<g>
</g>
<g>
</g>
<g>
</g>
<g>
</g>
<g>
</g>
<g>
</g>
<g>
</g>
<g>
</g>
<g>
</g>
<g>
</g>
</svg>
