<?xml version="1.0" encoding="utf-8"?>
<!-- Generator: Adobe Illustrator 19.2.1, SVG Export Plug-In . SVG Version: 6.00 Build 0)  -->
<svg version="1.0" id="Layer_1" xmlns="http://www.w3.org/2000/svg" xmlns:xlink="http://www.w3.org/1999/xlink" x="0px" y="0px"
	 viewBox="0 0 50 49" enable-background="new 0 0 50 49" xml:space="preserve">
<path fill="#FF00EA" d="M5.9584961,19.1206875c0-0.8310127,0.1308594-1.5815849,0.3920898-2.2517204
	s0.6162109-1.244071,1.0639648-1.7218075c0.4482422-0.4777355,0.9707031-0.8440542,1.5683594-1.0989561
	c0.597168-0.2543583,1.2319336-0.3815365,1.9038086-0.3815365c0.5322266,0,1.0053711,0.0570669,1.4208984,0.1712017
	c0.4150391,0.1146784,0.7724609,0.2445755,1.0712891,0.3896894c0.3452148,0.1663113,0.3920898,0.1510935,0.644043,0.3483839
	l-1.2182617,3.0800123c-0.1494141-0.1244602-0.3129883-0.24403-0.4897461-0.3581657
	c-0.1591797-0.0831547-0.3481445-0.1635933-0.5673828-0.2418575c-0.2192383-0.0777206-0.46875-0.1168518-0.7490234-0.1168518
	c-0.2890625,0-0.5551758,0.0570679-0.7978516,0.1717453c-0.2426758,0.1141357-0.4550781,0.2701187-0.637207,0.4674091
	c-0.1816406,0.1972904-0.3242188,0.428278-0.4267578,0.6935062c-0.1030273,0.2646847-0.1538086,0.5478477-0.1538086,0.8489475
	c0,0.3016415,0.0532227,0.5842609,0.1606445,0.8494892c0.1074219,0.2646847,0.2543945,0.4962158,0.440918,0.6935062
	c0.1870117,0.1972904,0.40625,0.3532753,0.6582031,0.4674091c0.2519531,0.1141357,0.5273438,0.1712036,0.8261719,0.1712036
	c0.2983398,0,0.5644531-0.0413074,0.7978516-0.1244621s0.4291992-0.1766376,0.5878906-0.2804451
	c0.1865234-0.1141357,0.3500977-0.2494678,0.4902344-0.4054508l1.4697266,2.8832645
	c-0.2519531,0.2282715-0.5507812,0.4309959-0.8959961,0.6076336c-0.2988281,0.1456585-0.6577148,0.2804451-1.0776367,0.4049072
	c-0.4204102,0.1250057-0.9008789,0.186964-1.4423828,0.186964c-0.7280273,0-1.3999023-0.1320705-2.015625-0.3972988
	c-0.6162109-0.2646847-1.1484375-0.6358948-1.5961914-1.1141739c-0.4482422-0.4777355-0.7978516-1.051672-1.0498047-1.7218075
	C6.0844727,20.6712914,5.9584961,19.9310455,5.9584961,19.1206875z M7.7226562,19.1206875
	c0-0.4983902,0.0771484-0.9657993,0.230957-1.4022293c0.1542969-0.4364319,0.3710938-0.815794,0.6508789-1.1375465
	c0.2802734-0.3222942,0.6206055-0.5766525,1.0224609-0.7636166c0.4008789-0.186964,0.8491211-0.2804461,1.34375-0.2804461
	c0.2426758,0,0.4594727,0.0179358,0.6508789,0.0543499c0.1914062,0.0364151,0.3525391,0.0804386,0.4829102,0.1326141
	c0.1586914,0.0521765,0.2944336,0.1141348,0.40625,0.186964l0.1958008-0.3739281
	c-0.1494141-0.0728283-0.3076172-0.1402225-0.4760742-0.2027254c-0.1586914-0.0516319-0.340332-0.098917-0.5458984-0.1402225
	c-0.2050781-0.0413065-0.4433594-0.0625029-0.7138672-0.0625029c-0.4760742,0-0.9311523,0.093482-1.3652344,0.2804461
	c-0.4335938,0.186964-0.8164062,0.4549093-1.1479492,0.8027496c-0.3310547,0.3483829-0.597168,0.7690525-0.7978516,1.2620068
	c-0.2006836,0.4934978-0.3007812,1.0418892-0.3007812,1.6440868c0,0.6130676,0.0952148,1.1636314,0.2866211,1.6516953
	c0.1914062,0.4886055,0.4550781,0.9065571,0.7910156,1.25494c0.3364258,0.3478413,0.7280273,0.615242,1.1762695,0.802206
	c0.4477539,0.186964,0.9238281,0.280447,1.4277344,0.280447c0.2802734,0,0.5322266-0.0255451,0.7563477-0.0777206
	c0.2236328-0.0521755,0.4150391-0.1092434,0.5737305-0.1712036c0.1772461-0.0728283,0.3359375-0.155983,0.4760742-0.2494659
	l-0.1958008-0.3739281c-0.121582,0.093483-0.2617188,0.1712036-0.4204102,0.2337055
	c-0.1396484,0.0619583-0.3076172,0.1168518-0.5039062,0.1635933c-0.1958008,0.0467415-0.4248047,0.0701122-0.6860352,0.0701122
	c-0.5131836,0-0.9750977-0.093483-1.3857422-0.280447s-0.7583008-0.441864-1.0429688-0.7636166
	c-0.2851562-0.3217525-0.5039062-0.7011147-0.6582031-1.1375446C7.7998047,20.0870285,7.7226562,19.6196194,7.7226562,19.1206875z"
	/>
<path fill="#FF00EA" d="M17.8867188,10.5820866h2.2397461l3.5419922,13.7548275h-2.9399414l-0.3081055-1.2371006h-2.828125
	l-0.3076172,1.2371006h-2.9399414L17.8867188,10.5820866z M16.4306641,22.6869678l0.265625-1.0306778h4.6201172l0.2661133,1.0306778
	h0.3920898l-2.7021484-10.4549351h-0.5317383l-2.7021484,10.4549351H16.4306641z M19.0063477,12.7268734l2.184082,8.4345779
	h-4.3676758L19.0063477,12.7268734z M19.6367188,20.0681992l-0.6303711-2.413065l-0.6298828,2.413065H19.6367188z"/>
<path fill="#FF00EA" d="M23.8789062,10.5820866h2.4638672l2.4360352,5.279253l2.421875-5.279253h2.4648438v13.7548275h-2.9824219
	v-4.9491196L28.7788086,23.51194l-1.9179688-4.1241455v4.9491196h-2.9819336V10.5820866z M25.6425781,22.6869678v-9.4652548
	l3.1362305,6.7227755l3.1210938-6.7227755v9.4652548h0.3652344V12.2320328h-0.3652344l-3.1210938,6.7846317l-3.1362305-6.7846317
	h-0.3637695v10.4549351H25.6425781z"/>
<path fill="#FF00EA" d="M41.9106445,17.7296638c0,0.7359352-0.1123047,1.3630733-0.3359375,1.879734
	c-0.2236328,0.5177784-0.5292969,0.9362411-0.9169922,1.2559471c-0.3876953,0.3202648-0.8398438,0.5546036-1.3583984,0.704134
	c-0.5175781,0.1495304-1.0751953,0.2237377-1.6728516,0.2237377v2.5436974h-2.9814453V13.666667h2.9814453
	c0.5976562,0,1.1552734,0.0747652,1.6728516,0.2237377c0.5185547,0.1495314,0.9707031,0.3838701,1.3583984,0.704134
	c0.3876953,0.319706,0.6933594,0.7387266,0.9169922,1.2559471S41.9106445,16.9942837,41.9106445,17.7296638z M40.5532227,17.7296638
	c0-0.4798393-0.0732422-0.8955116-0.2177734-1.2475777c-0.1445312-0.3520679-0.3476562-0.6399698-0.6083984-0.8637085
	c-0.2617188-0.2242956-0.5722656-0.3922386-0.9316406-0.503829c-0.359375-0.1121483-0.7490234-0.167943-1.1689453-0.167943
	h-1.5820312v8.1103706h0.3642578V20.513279h1.2177734c0.4199219,0,0.8095703-0.0557957,1.1689453-0.167944
	c0.359375-0.1115894,0.6699219-0.2795334,0.9316406-0.503828c0.2607422-0.2237396,0.4638672-0.5116425,0.6083984-0.8637085
	S40.5532227,18.2100582,40.5532227,17.7296638z M40.1606445,17.7296638c0,0.4591923-0.0703125,0.8430634-0.2099609,1.1521664
	c-0.1396484,0.3091049-0.3271484,0.5546036-0.5595703,0.7359371c-0.2333984,0.1813335-0.5019531,0.3118954-0.8056641,0.3916817
	c-0.3027344,0.0803452-0.6230469,0.1199589-0.9589844,0.1199589h-1.2177734v-4.7989321h1.2177734
	c0.3359375,0,0.65625,0.0396137,0.9589844,0.1199589c0.3037109,0.0797873,0.5722656,0.2103472,0.8056641,0.3916817
	c0.2324219,0.1813345,0.4199219,0.4268312,0.5595703,0.7359362C40.090332,16.8877163,40.1606445,17.2715855,40.1606445,17.7296638z
	 M37.6264648,18.9136333h0.1259766c0.3925781,0,0.6748047-0.1037788,0.8476562-0.3118935
	c0.171875-0.2081165,0.2587891-0.4982491,0.2587891-0.872076c0-0.3727112-0.0869141-0.6634045-0.2587891-0.8715191
	c-0.1728516-0.2081165-0.4550781-0.3118954-0.8476562-0.3118954h-0.1259766V18.9136333z"/>
<path fill="#FF00EA" d="M10.2568359,25.7509766l1.5820312,5.4344997l1.5961914-5.4344997h3.2617188L13.0571289,38.25h-2.4223633
	L6.9951172,25.7509766H10.2568359z M11.9926758,36.7506905l2.7724609-9.5004063h-0.3920898l-2.5341797,8.6383381
	l-2.5200195-8.6383381H8.9267578l2.7719727,9.5004063H11.9926758z"/>
<path fill="#FF00EA" d="M16.9072266,25.7509766h3.1635742v13.1998291h-3.1635742V25.7509766z M18.6708984,37.3674355V27.3343487
	h-0.3637695v10.0330868H18.6708984z"/>
<path fill="#FF00EA" d="M21.0507812,25.7509766h3.6538086c0.4663086,0,0.8935547,0.0883884,1.2807617,0.2651653
	c0.387207,0.1759739,0.71875,0.4371204,0.9941406,0.7826405c0.2753906,0.3455181,0.4902344,0.7762108,0.644043,1.2904701
	c0.1538086,0.5150642,0.230957,1.117712,0.230957,1.8087502c0,0.4917603-0.0371094,0.9095974-0.1118164,1.2551155
	s-0.1542969,0.6339855-0.2382812,0.8646011c-0.1025391,0.276413-0.2192383,0.5062218-0.3496094,0.6910362
	c0.2050781,0.2153435,0.3916016,0.4917603,0.5595703,0.8292427c0.1401367,0.2916832,0.2685547,0.6605034,0.3852539,1.1056595
	c0.1166992,0.445961,0.1748047,0.9907532,0.1748047,1.6359901c0,0.7368393-0.0791016,1.4053764-0.237793,2.0040054
	c-0.1586914,0.5994339-0.3852539,1.1104813-0.6791992,1.5323372c-0.2939453,0.422657-0.6533203,0.744873-1.0776367,0.9674492
	c-0.425293,0.223381-0.8984375,0.3342705-1.4213867,0.3342705h-3.8076172V25.7509766z M24.4663086,39.2744102
	c0.8212891,0,1.4282227-0.2916832,1.8203125-0.8750458c0.3920898-0.5841675,0.5878906-1.3595772,0.5878906-2.3270264
	c0-0.6299706-0.081543-1.1329803-0.2451172-1.5090332c-0.1630859-0.3760529-0.3383789-0.6717529-0.5249023-0.8871002
	c-0.2333984-0.2458801-0.4897461-0.4146194-0.7700195-0.5070267c0.2241211-0.1068687,0.4248047-0.2764168,0.6020508-0.5070267
	c0.1586914-0.199276,0.3007812-0.4716759,0.4272461-0.817194c0.1259766-0.3463211,0.1889648-0.7874603,0.1889648-1.3250217
	c0-0.967453-0.1870117-1.6970596-0.5600586-2.1888199c-0.3735352-0.4909573-0.8823242-0.7368374-1.5263672-0.7368374h-2.015625
	v11.6801319H24.4663086z M22.8144531,32.8927612v-4.7456551h1.6518555c0.6069336,0,1.043457,0.2185612,1.309082,0.6564865
	c0.2661133,0.4379234,0.3989258,1.0100384,0.3989258,1.7163429c0,0.7063026-0.1328125,1.2784176-0.3989258,1.7163429
	c-0.265625,0.4379234-0.7021484,0.6564827-1.309082,0.6564827H22.8144531z M22.8144531,38.7215805V33.445591h1.6381836
	c0.2890625,0,0.5576172,0.0498199,0.8046875,0.1502609c0.2475586,0.0996399,0.4643555,0.2531128,0.6513672,0.4604263
	c0.1865234,0.2073097,0.3334961,0.4805107,0.440918,0.8179932c0.1069336,0.3382874,0.1611328,0.7368393,0.1611328,1.1980667
	c0,0.9369164-0.1889648,1.6126862-0.5673828,2.0273094c-0.3779297,0.4146194-0.875,0.621933-1.4907227,0.621933H22.8144531z
	 M24.9707031,30.4275284c0-0.7063026-0.2333984-1.0598564-0.7001953-1.0598564h-0.3359375v2.1197147h0.3359375
	C24.7373047,31.4873867,24.9707031,31.1346359,24.9707031,30.4275284z M24.2705078,37.5002098
	c0.7089844,0,1.0639648-0.4451561,1.0639648-1.3354683c0-0.8911171-0.3549805-1.3362732-1.0639648-1.3362732h-0.3359375v2.6717415
	H24.2705078z"/>
<path fill="#FF00EA" d="M28.9047852,25.7509766H34.40625v3.4628506h-2.5195312v1.464653h2.4785156v3.2854633h-2.4785156v1.5233231
	h2.6171875v3.4635391h-5.5991211V25.7509766z M33.46875,37.3674355v-0.4748726h-2.800293V32.558651h2.659668v-0.4748764h-2.659668
	v-4.2745514h2.800293v-0.4748745h-3.1640625v10.0330868H33.46875z"/>
<path fill="#FF00EA" d="M34.953125,34.1788483c0.2050781,0.0849457,0.4199219,0.1515121,0.6435547,0.199688
	c0.1865234,0.0608597,0.3994141,0.1090393,0.6367188,0.1458092c0.2382812,0.0361328,0.4785156,0.0545158,0.7216797,0.0545158
	c0.4287109,0,0.6435547-0.206028,0.6435547-0.6180878c0-0.1572189-0.0654297-0.3182373-0.1953125-0.4817924
	c-0.1308594-0.163559-0.296875-0.3454971-0.4970703-0.5451889c-0.2011719-0.200325-0.4160156-0.4209366-0.6445312-0.6637344
	c-0.2285156-0.2421646-0.4433594-0.520462-0.6435547-0.8361645c-0.2011719-0.3144321-0.3671875-0.6694374-0.4970703-1.0631142
	c-0.1308594-0.3936749-0.1962891-0.8450394-0.1962891-1.3540916c0-0.5692768,0.0791016-1.0726242,0.2382812-1.5087738
	c0.1582031-0.4361496,0.3779297-0.7993965,0.6582031-1.090374c0.2792969-0.2909775,0.6083984-0.5115891,0.9863281-0.6637344
	c0.3779297-0.150877,0.7822266-0.2269497,1.2109375-0.2269497c0.2246094,0,0.4482422,0.0152149,0.671875,0.0456429
	c0.2246094,0.0304298,0.4248047,0.0576897,0.6025391,0.0817795c0.2050781,0.0361347,0.40625,0.0722675,0.6015625,0.1090374
	v3.3985424c-0.0742188-0.0114098-0.1582031-0.0240879-0.2519531-0.0361328
	c-0.0742188-0.0120449-0.1582031-0.0240898-0.2519531-0.0361347c-0.0927734-0.0120449-0.1914062-0.0183849-0.2939453-0.0183849
	c-0.0556641,0-0.1259766,0.00317-0.2099609,0.0088749c-0.0839844,0.00634-0.1630859,0.0215549-0.2382812,0.0456448
	c-0.0742188,0.0247231-0.1396484,0.0665627-0.1953125,0.1274204c-0.0566406,0.0608578-0.0839844,0.1451721-0.0839844,0.2542095
	c0,0.0969925,0.0625,0.2180748,0.1884766,0.3638802c0.1259766,0.1451721,0.2802734,0.3150673,0.4619141,0.508419
	c0.1826172,0.193985,0.3828125,0.4183998,0.6025391,0.6726093c0.21875,0.2548428,0.4199219,0.545187,0.6015625,0.8729324
	c0.1826172,0.3271122,0.3359375,0.6966991,0.4619141,1.1087589S40.875,33.9062538,40.875,34.4153061
	c0,0.5331421-0.0654297,1.0326843-0.1962891,1.4992638s-0.3339844,0.8722992-0.6083984,1.2177963
	c-0.2753906,0.3454971-0.6279297,0.6180916-1.0576172,0.8177795C38.5830078,38.1504707,38.0751953,38.25,37.4873047,38.25
	c-0.3554688,0-0.6845703-0.0209198-0.9873047-0.0633926c-0.3037109-0.0424767-0.5722656-0.0938225-0.8046875-0.1546822
	c-0.2714844-0.0608597-0.5185547-0.1331253-0.7421875-0.2180748V34.1788483z M36.1289062,36.3602295
	c0.1308594,0.0361328,0.2705078,0.0665627,0.4199219,0.0906525c0.1308594,0.0240898,0.2685547,0.0456429,0.4130859,0.0633965
	c0.1445312,0.018383,0.2919922,0.027256,0.4414062,0.027256c0.2607422,0,0.5146484-0.0393028,0.7626953-0.1179123
	c0.2470703-0.0786057,0.46875-0.209198,0.6650391-0.39114c0.1953125-0.1813049,0.3515625-0.4145927,0.46875-0.699234
	c0.1162109-0.2846375,0.1748047-0.6333046,0.1748047-1.0453644c0-0.3512001-0.0673828-0.6846542-0.203125-0.9997215
	c-0.1347656-0.3150673-0.3076172-0.6180878-0.5175781-0.9090652c-0.2099609-0.2903442-0.4335938-0.5692768-0.671875-0.8361664
	c-0.2382812-0.2662525-0.4619141-0.535677-0.671875-0.8082714c-0.2099609-0.2732277-0.3828125-0.5458202-0.5185547-0.8184147
	c-0.1347656-0.2725925-0.203125-0.5540619-0.203125-0.8450394c0-0.4361496,0.1074219-0.7721367,0.3222656-1.0085964
	c0.2148438-0.2364578,0.5605469-0.354372,1.0361328-0.354372c0.0742188,0,0.1513672,0.00317,0.2314453,0.0088768
	c0.0791016,0.0063381,0.1552734,0.015213,0.2304688,0.0272579c0.0742188,0.0120449,0.1494141,0.0183849,0.2236328,0.0183849
	v-0.4729176c-0.0654297,0-0.1347656-0.0057068-0.2099609-0.0177517c-0.0654297-0.012043-0.1376953-0.021553-0.2167969-0.0272579
	c-0.0791016-0.00634-0.1611328-0.00951-0.2451172-0.00951c-0.5039062,0-0.9189453,0.1483421-1.2460938,0.4456596
	c-0.3261719,0.2966824-0.4892578,0.7600918-0.4892578,1.3902264c0,0.3391571,0.0673828,0.6573944,0.203125,0.9540768
	c0.1347656,0.2973175,0.3076172,0.588295,0.5175781,0.8729343c0.2099609,0.2846375,0.4335938,0.5604019,0.671875,0.8266544
	c0.2382812,0.2668896,0.4619141,0.536314,0.671875,0.8089046c0.2099609,0.2725945,0.3828125,0.5546989,0.5185547,0.8450432
	c0.1347656,0.2909775,0.203125,0.593998,0.203125,0.9090652c0,0.5813217-0.1523438,1.0238113-0.4550781,1.3268356
	c-0.3037109,0.3030205-0.7216797,0.4545326-1.2529297,0.4545326c-0.3183594,0-0.6074219-0.0304298-0.8681641-0.0912857
	c-0.140625-0.0240898-0.2753906-0.0545197-0.40625-0.0906563V36.3602295z"/>
<ellipse fill="none" stroke="#000000" stroke-width="0.5" stroke-miterlimit="10" cx="24.1993809" cy="24.967041" rx="21.4428711" ry="20.5680962"/>
<g>
</g>
<g>
</g>
<g>
</g>
<g>
</g>
<g>
</g>
<g>
</g>
<g>
</g>
<g>
</g>
<g>
</g>
<g>
</g>
<g>
</g>
<g>
</g>
<g>
</g>
<g>
</g>
<g>
</g>
</svg>
