<?xml version="1.0" encoding="utf-8"?>
<!-- Generator: Adobe Illustrator 19.2.1, SVG Export Plug-In . SVG Version: 6.00 Build 0)  -->
<svg version="1.0" id="Layer_1" xmlns="http://www.w3.org/2000/svg" xmlns:xlink="http://www.w3.org/1999/xlink" x="0px" y="0px"
	 viewBox="0 0 119 51.5" enable-background="new 0 0 119 51.5" xml:space="preserve">
<rect x="4.1914062" y="6.0680056" fill="#FFFFFF" stroke="#000000" stroke-width="0.25" stroke-miterlimit="10" width="107.1259766" height="38.0963707"/>
<rect x="5.3221478" y="7.3624163" fill="#FFFFFF" stroke="#000000" stroke-width="0.25" stroke-miterlimit="10" width="104.6979828" height="35.5075493"/>
<g>
	<rect x="12.3691273" y="13.0671139" fill="none" width="93.6241608" height="32.5503349"/>
	<path d="M15.5141602,13.0009766h0.2939453l2.3310547,5.9458008c0.09375,0.2402344,0.2856445,0.3603516,0.5756836,0.3603516
		h0.2021484v0.3295898h-2.5927734v-0.3295898h0.206543c0.2695312,0,0.4599609-0.0292969,0.5712891-0.0878906
		c0.0761719-0.0410156,0.1142578-0.1040039,0.1142578-0.1889648c0-0.0498047-0.0102539-0.1025391-0.0307617-0.1582031
		l-0.5375977-1.3798828h-2.5708008l-0.3017578,0.7910156c-0.0791016,0.2109375-0.1186523,0.3779297-0.1186523,0.5009766
		c0,0.1435547,0.0664062,0.2666016,0.199707,0.3691406s0.3276367,0.1538086,0.5825195,0.1538086h0.2197266v0.3295898h-2.3554688
		v-0.3295898c0.2519531,0,0.4511719-0.0551758,0.5976562-0.1645508c0.1464844-0.1103516,0.28125-0.3188477,0.4042969-0.6264648
		L15.5141602,13.0009766z M15.3857422,14.253418l-1.1665039,2.8959961h2.2949219L15.3857422,14.253418z"/>
	<path d="M19.097168,15.519043l1.480957-0.074707v1.6655273c0.1582031-0.5478516,0.3486328-0.9624023,0.5712891-1.2436523
		s0.4980469-0.421875,0.8261719-0.421875c0.2226562,0,0.4003906,0.0683594,0.5336914,0.2041016
		c0.1333008,0.1367188,0.2001953,0.3188477,0.2001953,0.5473633c0,0.1845703-0.0449219,0.328125-0.1337891,0.4306641
		c-0.0898438,0.1025391-0.2016602,0.1538086-0.3364258,0.1538086c-0.1318359,0-0.2382812-0.0439453-0.3188477-0.1318359
		s-0.1206055-0.206543-0.1206055-0.355957c0-0.0966797,0.0234375-0.1875,0.0703125-0.2724609
		c0.0439453-0.0761719,0.065918-0.121582,0.065918-0.1362305c0-0.0439453-0.027832-0.065918-0.0834961-0.065918
		c-0.1201172,0-0.2563477,0.0703125-0.4086914,0.2109375c-0.2109375,0.1962891-0.3735352,0.4658203-0.487793,0.8085938
		c-0.1757812,0.5332031-0.2636719,0.9594727-0.2636719,1.2788086v0.8833008c0,0.0996094,0.0351562,0.1757812,0.1054688,0.2285156
		s0.1904297,0.0791016,0.3603516,0.0791016h0.5229492v0.3295898h-2.5576172v-0.3295898h0.4086914
		c0.1376953,0,0.2416992-0.0268555,0.3120117-0.081543c0.0703125-0.0537109,0.1054688-0.1191406,0.1054688-0.1953125v-2.6235352
		c0-0.1992188-0.0424805-0.3452148-0.1274414-0.4370117c-0.0849609-0.0927734-0.206543-0.1386719-0.3647461-0.1386719H19.097168
		V15.519043z"/>
	<path d="M24.2431641,13.840332h0.2944336v1.6787109h1.331543v0.4042969h-1.331543v2.6411133
		c0,0.2285156,0.0541992,0.4038086,0.1625977,0.5253906s0.2460938,0.1821289,0.4130859,0.1821289
		c0.1992188,0,0.3691406-0.0922852,0.5097656-0.2768555s0.2226562-0.4892578,0.2460938-0.9140625h0.2944336
		c-0.0175781,0.5478516-0.1420898,0.9545898-0.3735352,1.2197266s-0.5317383,0.3974609-0.9008789,0.3974609
		c-0.3398438,0-0.605957-0.0927734-0.7973633-0.2792969c-0.1923828-0.1855469-0.2880859-0.4296875-0.2880859-0.7314453v-2.7641602
		h-0.7163086v-0.3076172c0.3266602-0.0556641,0.574707-0.1918945,0.7456055-0.4086914
		C24.0859375,14.8818359,24.2226562,14.4262695,24.2431641,13.840332z"/>
	<path d="M26.5810547,15.519043l1.6391602-0.0483398v3.5419922c0,0.0966797,0.0234375,0.1655273,0.0703125,0.206543
		c0.0673828,0.0585938,0.1523438,0.0878906,0.2548828,0.0878906h0.4658203v0.3295898h-2.3422852v-0.3295898h0.4350586
		c0.1289062,0,0.2231445-0.03125,0.2832031-0.0942383s0.090332-0.1547852,0.090332-0.2749023v-2.5927734
		c0-0.1640625-0.046875-0.2875977-0.140625-0.371582c-0.09375-0.0830078-0.2329102-0.125-0.4174805-0.125h-0.3383789V15.519043z
		 M27.7236328,13.0625c0.1318359,0,0.2475586,0.0498047,0.347168,0.1494141s0.1494141,0.2167969,0.1494141,0.3515625
		c0,0.1318359-0.0483398,0.2460938-0.1450195,0.3427734s-0.2124023,0.1450195-0.347168,0.1450195
		s-0.2514648-0.0488281-0.3496094-0.1469727s-0.1469727-0.2133789-0.1469727-0.3452148s0.0498047-0.2475586,0.1494141-0.347168
		S27.5947266,13.0625,27.7236328,13.0625z"/>
	<path d="M29.9912109,18.0854492c0.1816406,0.5068359,0.3901367,0.8579102,0.6259766,1.0522461
		c0.2358398,0.1953125,0.5268555,0.2924805,0.8725586,0.2924805c0.3193359,0,0.5649414-0.0693359,0.7358398-0.2084961
		c0.171875-0.1391602,0.2573242-0.315918,0.2573242-0.5297852c0-0.1230469-0.0317383-0.230957-0.0947266-0.3227539
		c-0.0629883-0.0927734-0.1503906-0.1611328-0.2617188-0.2070312c-0.1118164-0.0449219-0.4008789-0.1118164-0.8676758-0.199707
		c-0.4462891-0.0878906-0.7573242-0.1801758-0.9331055-0.2768555s-0.3129883-0.2299805-0.4111328-0.3999023
		s-0.1474609-0.3544922-0.1474609-0.5537109c0-0.3017578,0.1010742-0.5756836,0.3037109-0.8217773
		c0.2612305-0.3134766,0.6264648-0.4702148,1.0957031-0.4702148c0.3579102,0,0.6894531,0.112793,0.9946289,0.3383789
		l0.2905273-0.3076172h0.1806641l0.1142578,1.4677734h-0.2944336c-0.1293945-0.4160156-0.3037109-0.715332-0.5239258-0.8984375
		s-0.4916992-0.2749023-0.8144531-0.2749023c-0.2792969,0-0.4975586,0.0678711-0.65625,0.2045898
		c-0.1586914,0.1357422-0.237793,0.3022461-0.237793,0.4985352c0,0.1728516,0.0732422,0.3164062,0.2202148,0.4306641
		c0.1435547,0.1171875,0.425293,0.2094727,0.8452148,0.2773438c0.4873047,0.0825195,0.8041992,0.1513672,0.9506836,0.2075195
		c0.2407227,0.0878906,0.4267578,0.2231445,0.559082,0.40625c0.1318359,0.1831055,0.1977539,0.40625,0.1977539,0.6694336
		c0,0.3632812-0.1430664,0.6708984-0.4291992,0.9223633c-0.2861328,0.2519531-0.6489258,0.3779297-1.0888672,0.3779297
		c-0.4077148,0-0.7861328-0.1347656-1.1352539-0.4042969l-0.3212891,0.3691406H29.784668l-0.0878906-1.6391602H29.9912109z"/>
	<path d="M33.581543,15.519043l1.6391602-0.0483398v3.5419922c0,0.0966797,0.0234375,0.1655273,0.0703125,0.206543
		c0.0673828,0.0585938,0.1523438,0.0878906,0.2548828,0.0878906h0.4658203v0.3295898h-2.3422852v-0.3295898h0.4350586
		c0.1289062,0,0.2231445-0.03125,0.2832031-0.0942383s0.090332-0.1547852,0.090332-0.2749023v-2.5927734
		c0-0.1640625-0.046875-0.2875977-0.140625-0.371582c-0.09375-0.0830078-0.2329102-0.125-0.4174805-0.125H33.581543V15.519043z
		 M34.7241211,13.0625c0.1318359,0,0.2475586,0.0498047,0.347168,0.1494141s0.1494141,0.2167969,0.1494141,0.3515625
		c0,0.1318359-0.0483398,0.2460938-0.1450195,0.3427734s-0.2124023,0.1450195-0.347168,0.1450195
		s-0.2514648-0.0488281-0.3496094-0.1469727s-0.1469727-0.2133789-0.1469727-0.3452148s0.0498047-0.2475586,0.1494141-0.347168
		S34.5952148,13.0625,34.7241211,13.0625z"/>
	<path d="M36.4951172,15.519043l1.3666992-0.0834961c0.0556641,0.2578125,0.0966797,0.5595703,0.1230469,0.9052734
		c0.1845703-0.2988281,0.4023438-0.5229492,0.6523438-0.6723633c0.2509766-0.1494141,0.5341797-0.2241211,0.8505859-0.2241211
		c0.2724609,0,0.5009766,0.0537109,0.6855469,0.1601562c0.1845703,0.1074219,0.3325195,0.2763672,0.4438477,0.5078125
		s0.1669922,0.4907227,0.1669922,0.777832v2.0039062c0,0.1494141,0.0336914,0.2558594,0.1010742,0.3188477
		s0.1801758,0.0942383,0.3383789,0.0942383h0.2900391v0.3295898h-2.1708984v-0.3295898h0.206543
		c0.1933594,0,0.328125-0.0307617,0.4042969-0.0922852s0.1142578-0.1538086,0.1142578-0.2768555v-1.762207
		c0-0.3837891-0.0585938-0.6679688-0.1757812-0.8525391c-0.1640625-0.2636719-0.4130859-0.3955078-0.7470703-0.3955078
		c-0.3310547,0-0.6074219,0.1333008-0.828125,0.3999023c-0.2216797,0.2666016-0.3320312,0.6137695-0.3320312,1.0415039v1.5249023
		c0,0.1494141,0.0341797,0.2558594,0.1035156,0.3188477c0.0683594,0.0629883,0.1821289,0.0942383,0.340332,0.0942383h0.2856445
		v0.3295898H36.534668v-0.3295898h0.2856445c0.1435547,0,0.2524414-0.0292969,0.3276367-0.0878906
		c0.0742188-0.0585938,0.1118164-0.1318359,0.1118164-0.2197266v-2.6586914c0-0.1757812-0.0478516-0.309082-0.1430664-0.3999023
		s-0.2319336-0.1362305-0.4106445-0.1362305h-0.2109375V15.519043z"/>
	<path d="M46.3432617,19.184082l0.1582031,0.2460938c-0.2138672,0.2197266-0.4511719,0.3295898-0.7119141,0.3295898
		c-0.1992188,0-0.3666992-0.0541992-0.503418-0.1625977c-0.1357422-0.1083984-0.2553711-0.2988281-0.3579102-0.5712891
		c-0.2783203,0.2929688-0.5229492,0.4887695-0.7338867,0.5864258c-0.2109375,0.0981445-0.4643555,0.1474609-0.7602539,0.1474609
		c-0.421875,0-0.7426758-0.0908203-0.9624023-0.2724609s-0.3295898-0.4145508-0.3295898-0.6987305
		c0-0.4277344,0.2509766-0.7827148,0.753418-1.065918c0.5024414-0.2822266,1.1713867-0.4707031,2.0063477-0.5644531v-0.6240234
		c0-0.2226562-0.0893555-0.4130859-0.2680664-0.5712891s-0.4057617-0.2373047-0.6811523-0.2373047
		c-0.2548828,0-0.4746094,0.0527344-0.6591797,0.1582031c-0.1318359,0.0791016-0.1977539,0.1567383-0.1977539,0.2329102
		c0,0.0439453,0.0351562,0.112793,0.1054688,0.206543c0.0849609,0.1171875,0.1274414,0.2211914,0.1274414,0.3120117
		c0,0.1318359-0.0424805,0.2397461-0.1274414,0.3227539c-0.0849609,0.0839844-0.1962891,0.1254883-0.3339844,0.1254883
		c-0.1464844,0-0.269043-0.0498047-0.3671875-0.1494141s-0.1469727-0.2270508-0.1469727-0.3823242
		c0-0.2900391,0.1630859-0.5551758,0.4897461-0.7954102s0.7553711-0.3603516,1.2856445-0.3603516
		c0.4892578,0,0.862793,0.1054688,1.1206055,0.3164062c0.2578125,0.2138672,0.3867188,0.4731445,0.3867188,0.777832v2.25
		c0,0.1992188,0.0322266,0.3457031,0.0966797,0.4394531c0.0644531,0.0966797,0.1479492,0.1450195,0.2504883,0.1450195
		C46.097168,19.324707,46.2172852,19.277832,46.3432617,19.184082z M44.9018555,17.4482422
		c-0.7441406,0.1025391-1.2714844,0.2695312-1.5820312,0.5009766c-0.2314453,0.1757812-0.347168,0.4248047-0.347168,0.7470703
		c0,0.2255859,0.0600586,0.4023438,0.1801758,0.5292969c0.1201172,0.1279297,0.2768555,0.1914062,0.4702148,0.1914062
		c0.3457031,0,0.6450195-0.1308594,0.8984375-0.3935547c0.253418-0.2617188,0.3803711-0.5908203,0.3803711-0.9863281V17.4482422z"/>
	<path d="M48.5537109,13.0625v5.9677734c0,0.0820312,0.0249023,0.1450195,0.074707,0.1889648
		c0.0732422,0.0585938,0.1625977,0.0878906,0.2680664,0.0878906h0.4350586v0.3295898h-2.3334961v-0.3295898h0.4130859
		c0.1347656,0,0.2348633-0.0322266,0.3012695-0.0966797c0.0654297-0.0644531,0.0986328-0.1552734,0.0986328-0.2724609v-5.0097656
		c0-0.1464844-0.0395508-0.253418-0.1186523-0.3208008c-0.1083984-0.09375-0.2416992-0.140625-0.3999023-0.140625h-0.3691406
		V13.137207L48.5537109,13.0625z"/>
	<path d="M52.5043945,13.137207h5.2866211l0.0878906,2.25h-0.3032227c-0.1347656-0.7734375-0.3237305-1.2773438-0.5668945-1.5117188
		c-0.2783203-0.2724609-0.675293-0.4086914-1.190918-0.4086914h-1.0415039c-0.1025391,0-0.1772461,0.0244141-0.2241211,0.0722656
		c-0.046875,0.0488281-0.0703125,0.1210938-0.0703125,0.2177734v2.3510742h0.5581055
		c0.3105469,0,0.5581055-0.1025391,0.7426758-0.3076172s0.2841797-0.5214844,0.2988281-0.9492188h0.3164062v2.9311523H56.081543
		c-0.0205078-0.4863281-0.1201172-0.8334961-0.2988281-1.0415039s-0.4262695-0.3120117-0.7426758-0.3120117h-0.5581055v2.4785156
		c0,0.1464844,0.0351562,0.25,0.1054688,0.3095703c0.0703125,0.0605469,0.1918945,0.090332,0.3647461,0.090332h0.6767578v0.3295898
		h-3.1245117v-0.3295898h0.6679688c0.1347656,0,0.2304688-0.0268555,0.2880859-0.081543
		c0.0566406-0.0537109,0.0854492-0.1425781,0.0854492-0.265625v-5.1679688c0-0.1171875-0.0302734-0.2006836-0.090332-0.2504883
		s-0.1645508-0.074707-0.3139648-0.074707h-0.637207V13.137207z"/>
	<path d="M58.2568359,15.519043l1.6391602-0.0483398v3.5419922c0,0.0966797,0.0234375,0.1655273,0.0703125,0.206543
		c0.0673828,0.0585938,0.1523438,0.0878906,0.2548828,0.0878906h0.4658203v0.3295898h-2.3422852v-0.3295898h0.4350586
		c0.1289062,0,0.2231445-0.03125,0.2832031-0.0942383s0.090332-0.1547852,0.090332-0.2749023v-2.5927734
		c0-0.1640625-0.046875-0.2875977-0.140625-0.371582c-0.09375-0.0830078-0.2329102-0.125-0.4174805-0.125h-0.3383789V15.519043z
		 M59.3994141,13.0625c0.1318359,0,0.2475586,0.0498047,0.347168,0.1494141s0.1494141,0.2167969,0.1494141,0.3515625
		c0,0.1318359-0.0483398,0.2460938-0.1450195,0.3427734s-0.2124023,0.1450195-0.347168,0.1450195
		s-0.2514648-0.0488281-0.3496094-0.1469727s-0.1469727-0.2133789-0.1469727-0.3452148s0.0498047-0.2475586,0.1494141-0.347168
		S59.2705078,13.0625,59.3994141,13.0625z"/>
	<path d="M61.1044922,15.519043l1.480957-0.074707v1.6655273c0.1582031-0.5478516,0.3486328-0.9624023,0.5712891-1.2436523
		s0.4980469-0.421875,0.8261719-0.421875c0.2226562,0,0.4003906,0.0683594,0.5336914,0.2041016
		c0.1333008,0.1367188,0.2001953,0.3188477,0.2001953,0.5473633c0,0.1845703-0.0449219,0.328125-0.1337891,0.4306641
		c-0.0898438,0.1025391-0.2016602,0.1538086-0.3364258,0.1538086c-0.1318359,0-0.2382812-0.0439453-0.3188477-0.1318359
		s-0.1206055-0.206543-0.1206055-0.355957c0-0.0966797,0.0234375-0.1875,0.0703125-0.2724609
		c0.0439453-0.0761719,0.065918-0.121582,0.065918-0.1362305c0-0.0439453-0.027832-0.065918-0.0834961-0.065918
		c-0.1201172,0-0.2563477,0.0703125-0.4086914,0.2109375c-0.2109375,0.1962891-0.3735352,0.4658203-0.487793,0.8085938
		c-0.1757812,0.5332031-0.2636719,0.9594727-0.2636719,1.2788086v0.8833008c0,0.0996094,0.0351562,0.1757812,0.1054688,0.2285156
		s0.1904297,0.0791016,0.3603516,0.0791016h0.5229492v0.3295898h-2.5576172v-0.3295898h0.4086914
		c0.1376953,0,0.2416992-0.0268555,0.3120117-0.081543c0.0703125-0.0537109,0.1054688-0.1191406,0.1054688-0.1953125v-2.6235352
		c0-0.1992188-0.0424805-0.3452148-0.1274414-0.4370117c-0.0849609-0.0927734-0.206543-0.1386719-0.3647461-0.1386719h-0.3603516
		V15.519043z"/>
	<path d="M69.0283203,17.6064453h-2.9492188c0.0146484,0.6269531,0.1318359,1.0693359,0.3515625,1.3271484
		c0.2519531,0.2900391,0.5732422,0.4350586,0.9628906,0.4350586c0.5742188,0,1.0351562-0.3266602,1.3837891-0.9799805
		l0.2861328,0.1230469c-0.4277344,0.8320312-1.0458984,1.2480469-1.8544922,1.2480469
		c-0.5512695,0-1.0151367-0.1992188-1.3911133-0.5976562c-0.3769531-0.3984375-0.5649414-0.9082031-0.5649414-1.5292969
		c0-0.6679688,0.1850586-1.2075195,0.5561523-1.6191406c0.3701172-0.4116211,0.8266602-0.6176758,1.3686523-0.6176758
		c0.3984375,0,0.7431641,0.1025391,1.0332031,0.3076172s0.5078125,0.4995117,0.6542969,0.8833008
		C68.9677734,16.8564453,69.0224609,17.1962891,69.0283203,17.6064453z M66.0791016,17.2944336h1.7841797
		c0.1054688,0,0.1875-0.0356445,0.2460938-0.1079102c0.0585938-0.0712891,0.0878906-0.1938477,0.0878906-0.3666992
		c0-0.3222656-0.1005859-0.5961914-0.3007812-0.8217773c-0.2011719-0.2255859-0.4375-0.3383789-0.7099609-0.3383789
		c-0.3046875,0-0.5634766,0.1362305-0.7758789,0.4086914S66.0878906,16.7495117,66.0791016,17.2944336z"/>
	<path d="M69.6044922,15.519043h1.8066406v0.3032227h-0.2373047c-0.1171875,0-0.2001953,0.0185547-0.25,0.0546875
		c-0.0498047,0.0371094-0.0751953,0.0859375-0.0751953,0.1474609c0,0.0644531,0.0146484,0.1333008,0.0439453,0.206543
		l0.9287109,2.3291016l0.8027344-2.2114258c-0.1123047-0.2358398-0.2109375-0.3828125-0.2958984-0.4404297
		c-0.0849609-0.0571289-0.234375-0.0859375-0.4482422-0.0859375V15.519043h1.9892578v0.3032227h-0.1669922
		c-0.1523438,0-0.2568359,0.0195312-0.3144531,0.0595703c-0.0576172,0.0390625-0.0859375,0.0942383-0.0859375,0.1645508
		c0,0.0527344,0.0136719,0.1142578,0.0400391,0.1845703l0.9355469,2.3291016l0.7421875-2.0698242
		c0.0498047-0.1376953,0.0742188-0.2548828,0.0742188-0.3515625s-0.0380859-0.1713867-0.1142578-0.2241211
		s-0.2197266-0.0834961-0.4306641-0.0922852V15.519043h1.6025391v0.3032227
		c-0.1992188,0.0322266-0.3496094,0.0947266-0.4521484,0.1865234c-0.1025391,0.0922852-0.1894531,0.2333984-0.2597656,0.4238281
		l-1.1923828,3.3271484h-0.2587891l-1.1572266-2.8793945l-1.0361328,2.8793945h-0.2548828l-1.4785156-3.6386719
		c-0.046875-0.1142578-0.0996094-0.1914062-0.1582031-0.2304688c-0.0585938-0.0400391-0.1582031-0.0625-0.2988281-0.0683594
		V15.519043z"/>
	<path d="M78.6083984,15.3959961c0.5546875,0,1.0195312,0.199707,1.3955078,0.6000977
		c0.3769531,0.3994141,0.5654297,0.9262695,0.5654297,1.5795898c0,0.4511719-0.0849609,0.8359375-0.2529297,1.1538086
		c-0.1689453,0.3178711-0.4091797,0.5688477-0.7207031,0.753418c-0.3125,0.1845703-0.6484375,0.2768555-1.0087891,0.2768555
		c-0.5332031,0-0.9853516-0.2021484-1.3554688-0.6064453c-0.3710938-0.4042969-0.5566406-0.9287109-0.5566406-1.5732422
		c0-0.6474609,0.1865234-1.1733398,0.5585938-1.5776367S78.0634766,15.3959961,78.6083984,15.3959961z M78.6083984,15.7080078
		c-0.328125,0-0.5976562,0.1489258-0.8085938,0.4462891s-0.3164062,0.7666016-0.3164062,1.4082031
		c0,0.6533203,0.1054688,1.1308594,0.3144531,1.4326172c0.2099609,0.3017578,0.4794922,0.4526367,0.8105469,0.4526367
		c0.34375,0,0.6210938-0.1508789,0.8330078-0.4526367c0.2128906-0.3017578,0.3193359-0.7954102,0.3193359-1.480957
		c0-0.6357422-0.1054688-1.0957031-0.3144531-1.3798828C79.2363281,15.8500977,78.9570312,15.7080078,78.6083984,15.7080078z"/>
	<path d="M83.1083984,15.3959961c0.5546875,0,1.0195312,0.199707,1.3955078,0.6000977
		c0.3769531,0.3994141,0.5654297,0.9262695,0.5654297,1.5795898c0,0.4511719-0.0849609,0.8359375-0.2529297,1.1538086
		c-0.1689453,0.3178711-0.4091797,0.5688477-0.7207031,0.753418c-0.3125,0.1845703-0.6484375,0.2768555-1.0087891,0.2768555
		c-0.5332031,0-0.9853516-0.2021484-1.3554688-0.6064453c-0.3710938-0.4042969-0.5566406-0.9287109-0.5566406-1.5732422
		c0-0.6474609,0.1865234-1.1733398,0.5585938-1.5776367S82.5634766,15.3959961,83.1083984,15.3959961z M83.1083984,15.7080078
		c-0.328125,0-0.5976562,0.1489258-0.8085938,0.4462891s-0.3164062,0.7666016-0.3164062,1.4082031
		c0,0.6533203,0.1054688,1.1308594,0.3144531,1.4326172c0.2099609,0.3017578,0.4794922,0.4526367,0.8105469,0.4526367
		c0.34375,0,0.6210938-0.1508789,0.8330078-0.4526367c0.2128906-0.3017578,0.3193359-0.7954102,0.3193359-1.480957
		c0-0.6357422-0.1054688-1.0957031-0.3144531-1.3798828C83.7363281,15.8500977,83.4570312,15.7080078,83.1083984,15.7080078z"/>
	<path d="M88,13.137207l1.6083984-0.074707v5.6337891c0,0.2197266,0.0419922,0.3764648,0.125,0.4702148
		c0.0839844,0.09375,0.2089844,0.140625,0.3759766,0.140625h0.2861328v0.3295898h-1.40625l-0.1054688-0.8393555
		c-0.1679688,0.2988281-0.3632812,0.5239258-0.5869141,0.6743164c-0.2246094,0.1513672-0.4755859,0.2265625-0.7539062,0.2265625
		c-0.46875,0-0.8681641-0.1962891-1.1972656-0.5888672c-0.3300781-0.3925781-0.4951172-0.9111328-0.4951172-1.5556641
		c0-0.6972656,0.2109375-1.2539062,0.6328125-1.6699219c0.3310547-0.3251953,0.7128906-0.487793,1.1425781-0.487793
		c0.2636719,0,0.5009766,0.065918,0.7099609,0.1977539c0.2099609,0.1318359,0.3916016,0.3310547,0.5478516,0.5976562v-2.324707
		c0-0.1230469-0.0478516-0.2202148-0.1435547-0.2924805c-0.0947266-0.0712891-0.2431641-0.1074219-0.4462891-0.1074219H88V13.137207
		z M87.7451172,15.7607422c-0.3164062,0-0.5673828,0.1303711-0.7539062,0.3911133
		c-0.1855469,0.2607422-0.2792969,0.7001953-0.2792969,1.3183594c0,0.6708984,0.0957031,1.1435547,0.2861328,1.4174805
		s0.4345703,0.4106445,0.7333984,0.4106445c0.3193359,0,0.5927734-0.152832,0.8203125-0.4594727
		c0.2265625-0.3056641,0.3398438-0.753418,0.3398438-1.3422852c0-0.5566406-0.1210938-0.9946289-0.3642578-1.3139648
		C88.3164062,15.9013672,88.0556641,15.7607422,87.7451172,15.7607422z"/>
	<path d="M98.2470703,13.6425781l0.3037109-0.628418h0.2763672l0.1152344,2.6147461h-0.2949219
		c-0.1933594-0.7353516-0.4365234-1.2773438-0.7294922-1.6259766c-0.3632812-0.4365234-0.796875-0.6547852-1.3007812-0.6547852
		c-0.5449219,0-0.9892578,0.2431641-1.3310547,0.7294922c-0.34375,0.4863281-0.5146484,1.3095703-0.5146484,2.4697266
		c0,0.9755859,0.1962891,1.7197266,0.5888672,2.2324219c0.3339844,0.4335938,0.8027344,0.6503906,1.40625,0.6503906
		c0.5273438,0,0.9697266-0.1694336,1.3271484-0.5073242c0.3574219-0.3388672,0.5898438-0.8491211,0.6982422-1.5317383h0.3125
		c-0.0908203,0.7734375-0.3554688,1.3681641-0.7949219,1.7841797s-0.9941406,0.6240234-1.6621094,0.6240234
		c-0.5419922,0-1.0390625-0.1362305-1.4912109-0.4086914c-0.453125-0.2724609-0.8144531-0.6640625-1.0859375-1.1757812
		c-0.2705078-0.5107422-0.40625-1.0712891-0.40625-1.6806641c0-0.6474609,0.1396484-1.2553711,0.4199219-1.8237305
		c0.2792969-0.5683594,0.6376953-0.9956055,1.0742188-1.2807617c0.4365234-0.2861328,0.90625-0.4287109,1.4111328-0.4287109
		c0.28125,0,0.5527344,0.0483398,0.8164062,0.1450195S97.9365234,13.4082031,98.2470703,13.6425781z"/>
	<path d="M101.7763672,15.3959961c0.5546875,0,1.0195312,0.199707,1.3955078,0.6000977
		c0.3769531,0.3994141,0.5654297,0.9262695,0.5654297,1.5795898c0,0.4511719-0.0849609,0.8359375-0.2529297,1.1538086
		c-0.1689453,0.3178711-0.4091797,0.5688477-0.7207031,0.753418c-0.3125,0.1845703-0.6484375,0.2768555-1.0087891,0.2768555
		c-0.5332031,0-0.9853516-0.2021484-1.3554688-0.6064453c-0.3710938-0.4042969-0.5566406-0.9287109-0.5566406-1.5732422
		c0-0.6474609,0.1865234-1.1733398,0.5585938-1.5776367S101.2314453,15.3959961,101.7763672,15.3959961z M101.7763672,15.7080078
		c-0.328125,0-0.5976562,0.1489258-0.8085938,0.4462891s-0.3164062,0.7666016-0.3164062,1.4082031
		c0,0.6533203,0.1054688,1.1308594,0.3144531,1.4326172c0.2099609,0.3017578,0.4794922,0.4526367,0.8105469,0.4526367
		c0.34375,0,0.6210938-0.1508789,0.8330078-0.4526367c0.2128906-0.3017578,0.3193359-0.7954102,0.3193359-1.480957
		c0-0.6357422-0.1054688-1.0957031-0.3144531-1.3798828C102.4042969,15.8500977,102.125,15.7080078,101.7763672,15.7080078z"/>
</g>
<g>
</g>
<g>
	<line fill="none" x1="12.3691273" y1="27.496645" x2="103.3087234" y2="27.496645"/>
</g>
<line fill="none" stroke="#000000" stroke-width="0.75" stroke-miterlimit="10" x1="12.3691273" y1="24.476511" x2="103.3087234" y2="24.476511"/>
<g>
	<rect x="24.0906048" y="29.3422813" fill="none" width="77.3489914" height="12.0805368"/>
	<path d="M24.6142578,29.4047852h4.578125l0.109375,1.9492188h-0.2617188
		c-0.1040039-0.6142578-0.2685547-1.0439453-0.4936523-1.2890625c-0.2246094-0.2451172-0.5180664-0.3671875-0.8793945-0.3671875
		h-1.1313477c-0.0908203,0-0.159668,0.0244141-0.206543,0.0742188s-0.0703125,0.125-0.0703125,0.2265625v2.0585938h0.4946289
		c0.2651367,0,0.4799805-0.0947266,0.6450195-0.2851562c0.1645508-0.1904297,0.253418-0.4814453,0.2666016-0.875h0.2695312
		v2.6757812h-0.2695312c-0.0131836-0.4423828-0.1035156-0.7597656-0.2705078-0.9511719
		c-0.1679688-0.1914062-0.3955078-0.2871094-0.684082-0.2871094h-0.4516602v2.296875
		c0,0.0830078,0.027832,0.1474609,0.0839844,0.1914062c0.0556641,0.0439453,0.1489258,0.0664062,0.2788086,0.0664062h0.8935547
		c0.9697266,0,1.5288086-0.6201172,1.6772461-1.859375h0.28125l-0.0976562,2.1523438h-4.7617188v-0.2929688h0.3945312
		c0.1538086,0,0.2617188-0.0263672,0.3242188-0.0800781s0.09375-0.1308594,0.09375-0.2324219v-4.578125
		c0-0.1015625-0.0273438-0.1767578-0.0820312-0.2265625s-0.140625-0.0742188-0.2578125-0.0742188h-0.4726562V29.4047852z"/>
	<path d="M30.5712891,33.8032227c0.1616211,0.4501953,0.347168,0.7626953,0.5566406,0.9355469
		s0.4682617,0.2597656,0.7753906,0.2597656c0.2836914,0,0.5019531-0.0615234,0.6542969-0.1855469
		s0.2285156-0.2802734,0.2285156-0.4707031c0-0.109375-0.0283203-0.2050781-0.0839844-0.2871094
		c-0.0561523-0.0820312-0.1337891-0.1435547-0.2329102-0.1835938s-0.3564453-0.0996094-0.7709961-0.1777344
		c-0.3969727-0.078125-0.6733398-0.1601562-0.8295898-0.2460938s-0.2783203-0.2041016-0.3657227-0.3554688
		s-0.1308594-0.3154297-0.1308594-0.4921875c0-0.2685547,0.0898438-0.5117188,0.2700195-0.7304688
		c0.2319336-0.2783203,0.5566406-0.4179688,0.9741211-0.4179688c0.3178711,0,0.612793,0.1005859,0.8837891,0.3007812
		l0.2583008-0.2734375h0.1606445l0.1015625,1.3046875h-0.2617188c-0.1147461-0.3701172-0.2700195-0.6357422-0.4658203-0.7988281
		s-0.4370117-0.2441406-0.7241211-0.2441406c-0.2475586,0-0.4423828,0.0605469-0.5830078,0.1816406
		c-0.1411133,0.1210938-0.2114258,0.2685547-0.2114258,0.4433594c0,0.1533203,0.0654297,0.28125,0.1958008,0.3828125
		c0.1274414,0.1044922,0.378418,0.1865234,0.7514648,0.2460938c0.4326172,0.0732422,0.7143555,0.1347656,0.8452148,0.1845703
		c0.2133789,0.078125,0.3789062,0.1982422,0.496582,0.3613281c0.1171875,0.1630859,0.1757812,0.3613281,0.1757812,0.5957031
		c0,0.3222656-0.1269531,0.5957031-0.3813477,0.8193359s-0.5771484,0.3359375-0.9682617,0.3359375
		c-0.3623047,0-0.6987305-0.1201172-1.0087891-0.359375l-0.2856445,0.328125h-0.2075195l-0.078125-1.4570312H30.5712891z"/>
	<path d="M34.7978516,30.0297852h0.2617188v1.4921875h1.1835938v0.359375h-1.1835938v2.3476562
		c0,0.203125,0.0483398,0.3583984,0.1445312,0.4667969s0.21875,0.1621094,0.3671875,0.1621094
		c0.1772461,0,0.328125-0.0820312,0.453125-0.2460938s0.1977539-0.4345703,0.21875-0.8125h0.2617188
		c-0.015625,0.4873047-0.1264648,0.8486328-0.3320312,1.0839844s-0.4726562,0.3535156-0.8007812,0.3535156
		c-0.3022461,0-0.5385742-0.0830078-0.7089844-0.2480469s-0.2558594-0.3818359-0.2558594-0.6503906v-2.4570312h-0.6367188
		v-0.2734375c0.2900391-0.0498047,0.5112305-0.1708984,0.6625977-0.3632812
		C34.6582031,30.9555664,34.7792969,30.550293,34.7978516,30.0297852z"/>
	<path d="M40.8134766,34.7797852l0.140625,0.21875c-0.1899414,0.1953125-0.4008789,0.2929688-0.6328125,0.2929688
		c-0.1772461,0-0.3261719-0.0478516-0.4472656-0.1445312s-0.2270508-0.265625-0.3183594-0.5078125
		c-0.2475586,0.2607422-0.4648438,0.4345703-0.6523438,0.5214844s-0.4125977,0.1308594-0.6757812,0.1308594
		c-0.375,0-0.6601562-0.0810547-0.8554688-0.2421875s-0.2929688-0.3681641-0.2929688-0.6210938
		c0-0.3798828,0.2231445-0.6962891,0.6699219-0.9472656s1.0410156-0.4189453,1.7832031-0.5019531v-0.5546875
		c0-0.1982422-0.0795898-0.3671875-0.2382812-0.5078125s-0.3608398-0.2109375-0.6054688-0.2109375
		c-0.2265625,0-0.421875,0.046875-0.5859375,0.140625c-0.1171875,0.0703125-0.1757812,0.1396484-0.1757812,0.2070312
		c0,0.0390625,0.03125,0.1005859,0.09375,0.1835938c0.0756836,0.1044922,0.1132812,0.1962891,0.1132812,0.2773438
		c0,0.1171875-0.0375977,0.2128906-0.1132812,0.2871094s-0.1743164,0.1113281-0.296875,0.1113281
		c-0.1303711,0-0.2387695-0.0439453-0.3261719-0.1328125s-0.1308594-0.2021484-0.1308594-0.3398438
		c0-0.2578125,0.1450195-0.4931641,0.4355469-0.7070312s0.6713867-0.3203125,1.1425781-0.3203125
		c0.4350586,0,0.7670898,0.09375,0.9960938,0.28125c0.2290039,0.1904297,0.34375,0.4208984,0.34375,0.6914062v2
		c0,0.1767578,0.0288086,0.3076172,0.0859375,0.390625c0.0571289,0.0859375,0.1313477,0.1289062,0.2226562,0.1289062
		C40.5947266,34.9047852,40.7016602,34.862793,40.8134766,34.7797852z M39.5322266,33.2368164
		c-0.6616211,0.0908203-1.1303711,0.2392578-1.40625,0.4453125c-0.2055664,0.15625-0.3085938,0.3779297-0.3085938,0.6640625
		c0,0.2001953,0.0532227,0.3574219,0.1601562,0.4707031s0.2460938,0.1699219,0.4179688,0.1699219
		c0.3071289,0,0.5737305-0.1162109,0.7988281-0.3496094s0.3378906-0.5253906,0.3378906-0.8769531V33.2368164z"/>
	<path d="M42.5283203,29.3383789v2.7226562c0.1538086-0.2177734,0.3242188-0.3798828,0.5117188-0.4873047
		s0.3920898-0.1611328,0.6132812-0.1611328c0.4296875,0,0.7929688,0.1679688,1.0898438,0.5039062
		s0.4453125,0.7783203,0.4453125,1.328125c0,0.5966797-0.159668,1.0771484-0.4785156,1.4433594
		s-0.7143555,0.5488281-1.1855469,0.5488281c-0.2241211,0-0.4272461-0.0439453-0.609375-0.1328125
		c-0.1821289-0.0878906-0.3696289-0.2382812-0.5625-0.4492188c-0.1484375,0.2373047-0.2915039,0.4316406-0.4296875,0.5820312
		l-0.15625-0.0546875c0.0727539-0.2998047,0.109375-0.6123047,0.109375-0.9375v-4.1367188
		c0-0.1279297-0.0449219-0.2275391-0.1347656-0.3007812s-0.2167969-0.109375-0.3808594-0.109375h-0.1640625v-0.2929688
		L42.5283203,29.3383789z M43.5126953,31.7602539c-0.2944336,0-0.5336914,0.1279297-0.71875,0.3847656
		c-0.1850586,0.2558594-0.2773438,0.6787109-0.2773438,1.2695312c0,0.5615234,0.0913086,0.9638672,0.2734375,1.2050781
		c0.1821289,0.2421875,0.4204102,0.3632812,0.7148438,0.3632812c0.265625,0,0.4790039-0.1191406,0.640625-0.359375
		c0.203125-0.3007812,0.3046875-0.7314453,0.3046875-1.2910156c0-0.5517578-0.0893555-0.9511719-0.2675781-1.1992188
		C44.0043945,31.8842773,43.7807617,31.7602539,43.5126953,31.7602539z"/>
	<path d="M47.2275391,29.3383789v5.3046875c0,0.0732422,0.0219727,0.1289062,0.0664062,0.1679688
		c0.0649414,0.0517578,0.1445312,0.078125,0.2382812,0.078125h0.3867188v0.2929688h-2.0742188v-0.2929688h0.3671875
		c0.1196289,0,0.2089844-0.0283203,0.2675781-0.0859375s0.0878906-0.1376953,0.0878906-0.2421875v-4.453125
		c0-0.1298828-0.0351562-0.2255859-0.1054688-0.2851562c-0.0961914-0.0830078-0.2148438-0.125-0.3554688-0.125h-0.328125v-0.2929688
		L47.2275391,29.3383789z"/>
	<path d="M48.2939453,31.5219727l1.4570312-0.0429688v3.1484375c0,0.0859375,0.0209961,0.1474609,0.0625,0.1835938
		c0.0600586,0.0517578,0.1352539,0.078125,0.2265625,0.078125h0.4140625v0.2929688h-2.0820312v-0.2929688h0.3867188
		c0.1147461,0,0.1987305-0.0283203,0.2519531-0.0839844s0.0800781-0.1376953,0.0800781-0.2441406v-2.3046875
		c0-0.1455078-0.0415039-0.2558594-0.125-0.3300781s-0.2070312-0.1113281-0.3710938-0.1113281h-0.3007812V31.5219727z
		 M49.3095703,29.3383789c0.1171875,0,0.2202148,0.0439453,0.3085938,0.1328125s0.1328125,0.1923828,0.1328125,0.3125
		c0,0.1171875-0.0429688,0.21875-0.1289062,0.3046875s-0.1889648,0.1289062-0.3085938,0.1289062
		s-0.2231445-0.0439453-0.3105469-0.1308594s-0.1308594-0.1894531-0.1308594-0.3066406s0.0444336-0.2197266,0.1328125-0.3085938
		S49.1948242,29.3383789,49.3095703,29.3383789z"/>
	<path d="M51.3251953,33.8032227c0.1616211,0.4501953,0.347168,0.7626953,0.5566406,0.9355469
		s0.4682617,0.2597656,0.7753906,0.2597656c0.2836914,0,0.5019531-0.0615234,0.6542969-0.1855469
		s0.2285156-0.2802734,0.2285156-0.4707031c0-0.109375-0.0283203-0.2050781-0.0839844-0.2871094
		c-0.0561523-0.0820312-0.1337891-0.1435547-0.2329102-0.1835938s-0.3564453-0.0996094-0.7709961-0.1777344
		c-0.3969727-0.078125-0.6733398-0.1601562-0.8295898-0.2460938s-0.2783203-0.2041016-0.3657227-0.3554688
		s-0.1308594-0.3154297-0.1308594-0.4921875c0-0.2685547,0.0898438-0.5117188,0.2700195-0.7304688
		c0.2319336-0.2783203,0.5566406-0.4179688,0.9741211-0.4179688c0.3178711,0,0.612793,0.1005859,0.8837891,0.3007812
		l0.2583008-0.2734375h0.1606445l0.1015625,1.3046875h-0.2617188c-0.1147461-0.3701172-0.2700195-0.6357422-0.4658203-0.7988281
		s-0.4370117-0.2441406-0.7241211-0.2441406c-0.2475586,0-0.4423828,0.0605469-0.5830078,0.1816406
		c-0.1411133,0.1210938-0.2114258,0.2685547-0.2114258,0.4433594c0,0.1533203,0.0654297,0.28125,0.1958008,0.3828125
		c0.1274414,0.1044922,0.378418,0.1865234,0.7514648,0.2460938c0.4326172,0.0732422,0.7143555,0.1347656,0.8452148,0.1845703
		c0.2133789,0.078125,0.3789062,0.1982422,0.496582,0.3613281c0.1171875,0.1630859,0.1757812,0.3613281,0.1757812,0.5957031
		c0,0.3222656-0.1269531,0.5957031-0.3813477,0.8193359s-0.5771484,0.3359375-0.9682617,0.3359375
		c-0.3623047,0-0.6987305-0.1201172-1.0087891-0.359375l-0.2856445,0.328125h-0.2075195l-0.078125-1.4570312H51.3251953z"/>
	<path d="M54.4931641,29.4047852l1.3867188-0.0664062v2.8203125c0.1928711-0.25,0.3999023-0.4365234,0.6210938-0.5605469
		s0.4555664-0.1855469,0.703125-0.1855469c0.234375,0,0.4453125,0.0556641,0.6328125,0.1679688
		c0.1459961,0.0888672,0.2700195,0.2431641,0.3730469,0.4648438s0.1542969,0.4833984,0.1542969,0.7851562v1.7382812
		c0,0.1123047,0.0288086,0.1933594,0.0859375,0.2441406s0.1469727,0.0761719,0.2695312,0.0761719h0.3125v0.2929688h-1.9765625
		v-0.2929688h0.21875c0.1665039,0,0.2817383-0.0263672,0.3457031-0.0800781s0.0957031-0.1337891,0.0957031-0.2402344v-1.7382812
		c0-0.3046875-0.0737305-0.5419922-0.2207031-0.7128906s-0.3354492-0.2558594-0.5644531-0.2558594
		c-0.1796875,0-0.3461914,0.0478516-0.5,0.1445312s-0.2836914,0.2431641-0.390625,0.4394531
		s-0.1601562,0.4042969-0.1601562,0.6230469v1.4609375c0,0.1298828,0.0273438,0.2226562,0.0820312,0.2773438
		s0.1445312,0.0820312,0.2695312,0.0820312h0.3125v0.2929688h-1.9335938v-0.2929688h0.21875
		c0.1484375,0,0.2539062-0.0292969,0.3164062-0.0878906s0.09375-0.1494141,0.09375-0.2714844v-4.3671875
		c0-0.15625-0.0410156-0.2724609-0.1230469-0.3496094s-0.2011719-0.1152344-0.3574219-0.1152344h-0.265625V29.4047852z"/>
	<path d="M62.9072266,33.3774414h-2.6210938c0.0131836,0.5576172,0.1171875,0.9501953,0.3125,1.1796875
		c0.2241211,0.2578125,0.5092773,0.3867188,0.8554688,0.3867188c0.5102539,0,0.9204102-0.2900391,1.2304688-0.8710938
		l0.2539062,0.109375c-0.3803711,0.7392578-0.9296875,1.109375-1.6484375,1.109375
		c-0.4897461,0-0.9018555-0.1767578-1.2363281-0.53125s-0.5019531-0.8076172-0.5019531-1.359375
		c0-0.59375,0.1645508-1.0732422,0.4941406-1.4394531s0.7348633-0.5488281,1.2167969-0.5488281
		c0.3540039,0,0.6601562,0.0908203,0.9179688,0.2734375s0.4516602,0.4443359,0.5820312,0.7851562
		C62.8540039,32.7104492,62.9018555,33.0131836,62.9072266,33.3774414z M60.2861328,33.1000977h1.5859375
		c0.09375,0,0.1665039-0.0322266,0.21875-0.0957031s0.078125-0.1728516,0.078125-0.3261719
		c0-0.2861328-0.0893555-0.5302734-0.2675781-0.7304688s-0.3886719-0.3007812-0.6308594-0.3007812
		c-0.2709961,0-0.5004883,0.1210938-0.6894531,0.3632812S60.2939453,32.6157227,60.2861328,33.1000977z"/>
	<path d="M65.5478516,29.4047852l1.4296875-0.0664062v5.0078125c0,0.1953125,0.0371094,0.3349609,0.1113281,0.4179688
		s0.1855469,0.125,0.3339844,0.125h0.2539062v0.2929688h-1.25l-0.09375-0.7460938
		c-0.1484375,0.265625-0.3222656,0.4658203-0.5214844,0.5996094s-0.4223633,0.2011719-0.6699219,0.2011719
		c-0.4165039,0-0.7714844-0.1748047-1.0644531-0.5234375s-0.4394531-0.8095703-0.4394531-1.3828125
		c0-0.6201172,0.1875-1.1142578,0.5625-1.484375c0.2944336-0.2890625,0.6328125-0.4335938,1.015625-0.4335938
		c0.234375,0,0.4448242,0.0585938,0.6308594,0.1757812s0.3481445,0.2939453,0.4863281,0.53125v-2.0664062
		c0-0.109375-0.0424805-0.1962891-0.1269531-0.2597656s-0.2167969-0.0957031-0.3964844-0.0957031h-0.2617188V29.4047852z
		 M65.3212891,31.7368164c-0.28125,0-0.5043945,0.1162109-0.6699219,0.3476562s-0.2480469,0.6220703-0.2480469,1.171875
		c0,0.5966797,0.0844727,1.0166016,0.2539062,1.2597656s0.3867188,0.3652344,0.6523438,0.3652344
		c0.2836914,0,0.5268555-0.1357422,0.7285156-0.4082031s0.3027344-0.6699219,0.3027344-1.1933594
		c0-0.4951172-0.1079102-0.8837891-0.3242188-1.1679688C65.8291016,31.8618164,65.597168,31.7368164,65.3212891,31.7368164z"/>
	<path d="M71.2900391,34.3266602c-0.1201172,0.1533203,0.4697266,0.2304688,1.7675781,0.2304688
		c0.1953125,0,0.3339844-0.0507812,0.4169922-0.1523438s0.1777344-0.3828125,0.2841797-0.84375h0.2695312l-0.1269531,1.6210938
		h-3.4980469v-0.2109375l1.1367188-1.2929688c0.6328125-0.6875,1.0136719-1.1201172,1.140625-1.296875
		c0.1826172-0.2529297,0.3154297-0.4970703,0.3984375-0.7324219c0.0839844-0.2353516,0.125-0.4501953,0.125-0.6425781
		c0-0.3203125-0.0878906-0.5722656-0.265625-0.7558594c-0.1767578-0.1835938-0.4228516-0.2753906-0.7382812-0.2753906
		c-0.3535156,0-0.6425781,0.0849609-0.8671875,0.2539062c-0.2236328,0.1689453-0.3359375,0.3486328-0.3359375,0.5390625
		c0,0.0654297,0.0175781,0.1142578,0.0507812,0.1484375c0.03125,0.0341797,0.0996094,0.0634766,0.203125,0.0898438
		c0.2636719,0.0625,0.3945312,0.2158203,0.3945312,0.4609375c0,0.1328125-0.0439453,0.2431641-0.1328125,0.3300781
		c-0.0878906,0.0869141-0.2011719,0.1308594-0.3398438,0.1308594c-0.1582031,0-0.2978516-0.0732422-0.4179688-0.2207031
		c-0.1191406-0.1474609-0.1796875-0.3388672-0.1796875-0.5761719c0-0.265625,0.0683594-0.5068359,0.2050781-0.7246094
		s0.34375-0.3955078,0.6191406-0.5351562c0.2763672-0.1396484,0.5732422-0.2089844,0.890625-0.2089844
		c0.3154297,0,0.6074219,0.0673828,0.8769531,0.203125s0.4726562,0.3134766,0.6074219,0.5332031
		c0.1357422,0.2197266,0.203125,0.4599609,0.203125,0.7207031c0,0.1796875-0.0332031,0.3623047-0.1015625,0.546875
		c-0.0673828,0.1845703-0.1660156,0.3583984-0.2958984,0.5195312c-0.2236328,0.2783203-0.4541016,0.5166016-0.6904297,0.7148438
		l-1.0302734,0.8671875C71.5996094,33.9868164,71.4091797,34.1733398,71.2900391,34.3266602z"/>
	<path d="M76.7119141,29.6625977c0.5078125,0,0.9316406,0.1982422,1.2695312,0.59375
		c0.4199219,0.4873047,0.6289062,1.2255859,0.6289062,2.2148438c0,0.9189453-0.1816406,1.6191406-0.546875,2.0996094
		c-0.3642578,0.4804688-0.8046875,0.7207031-1.3203125,0.7207031c-0.4970703,0-0.9121094-0.2021484-1.2460938-0.6054688
		c-0.4160156-0.5078125-0.625-1.2412109-0.625-2.1992188c0-0.9111328,0.1972656-1.6367188,0.5898438-2.1757812
		C75.7773438,29.878418,76.1943359,29.6625977,76.7119141,29.6625977z M76.7353516,29.9438477
		c-0.34375,0-0.6113281,0.1650391-0.8046875,0.4941406c-0.1923828,0.3291016-0.2890625,1.0126953-0.2890625,2.0488281
		c0,1.0126953,0.0996094,1.6884766,0.2988281,2.0273438s0.4667969,0.5078125,0.8027344,0.5078125
		c0.3388672,0,0.5996094-0.15625,0.78125-0.46875c0.2167969-0.3720703,0.3242188-1.0517578,0.3242188-2.0390625
		c0-1.0205078-0.1015625-1.7041016-0.3046875-2.0507812S77.0712891,29.9438477,76.7353516,29.9438477z"/>
	<path d="M81.6455078,29.7641602v4.875c0,0.0732422,0.0263672,0.1289062,0.078125,0.1679688
		c0.0761719,0.0546875,0.1679688,0.0820312,0.2773438,0.0820312h0.7578125v0.2929688h-2.8125v-0.2929688h0.6484375
		c0.1357422,0,0.2363281-0.0322266,0.3007812-0.0957031c0.0654297-0.0634766,0.0976562-0.1494141,0.0976562-0.2558594v-3.6835938
		c0-0.0751953-0.0292969-0.1396484-0.0898438-0.1914062c-0.0595703-0.0517578-0.1367188-0.078125-0.2304688-0.078125h-0.8671875
		v-0.2695312c0.4072266-0.0517578,0.7373047-0.1220703,0.9902344-0.2089844s0.4755859-0.2011719,0.6689453-0.3417969H81.6455078z"/>
	<path d="M84.6494141,32.6196289c0.203125-0.2705078,0.4169922-0.4648438,0.640625-0.5820312
		c0.2246094-0.1171875,0.4707031-0.1757812,0.7382812-0.1757812c0.4326172,0,0.7949219,0.1464844,1.0878906,0.4394531
		s0.4394531,0.6630859,0.4394531,1.1113281c0,0.5390625-0.1728516,0.9873047-0.5195312,1.34375
		c-0.3457031,0.3564453-0.7744141,0.5351562-1.2851562,0.5351562c-0.359375,0-0.6796875-0.0957031-0.9609375-0.2871094
		s-0.5107422-0.4902344-0.6894531-0.8964844c-0.1777344-0.40625-0.2675781-0.8798828-0.2675781-1.421875
		c0-0.5859375,0.109375-1.1171875,0.328125-1.59375s0.4980469-0.8339844,0.8378906-1.0722656
		s0.6953125-0.3574219,1.0644531-0.3574219c0.3808594,0,0.703125,0.1044922,0.96875,0.3125
		c0.2216797,0.1689453,0.3320312,0.3720703,0.3320312,0.609375c0,0.1591797-0.0488281,0.2890625-0.1464844,0.390625
		s-0.2167969,0.1523438-0.3574219,0.1523438c-0.1298828,0-0.2412109-0.0429688-0.3339844-0.1289062
		c-0.0917969-0.0859375-0.1386719-0.1875-0.1386719-0.3046875c0-0.078125,0.03125-0.1669922,0.09375-0.265625
		c0.0576172-0.0908203,0.0859375-0.1630859,0.0859375-0.2148438c0-0.0732422-0.0351562-0.1328125-0.1054688-0.1796875
		c-0.09375-0.0595703-0.2226562-0.0898438-0.3867188-0.0898438c-0.2519531,0-0.4824219,0.0791016-0.6914062,0.2382812
		c-0.2080078,0.1591797-0.3847656,0.4316406-0.5292969,0.8183594s-0.2167969,0.8212891-0.2167969,1.3027344
		C84.6376953,32.3735352,84.6416016,32.4790039,84.6494141,32.6196289z M85.8134766,32.2446289
		c-0.3251953,0-0.5917969,0.1181641-0.7988281,0.3535156s-0.3105469,0.5673828-0.3105469,0.9941406
		c0,0.4638672,0.1005859,0.8173828,0.3007812,1.0625c0.2011719,0.2451172,0.4560547,0.3671875,0.765625,0.3671875
		c0.3076172,0,0.5546875-0.1162109,0.7421875-0.3476562s0.28125-0.578125,0.28125-1.0390625
		c0-0.4892578-0.0859375-0.84375-0.2597656-1.0625C86.3613281,32.3540039,86.1210938,32.2446289,85.8134766,32.2446289z"/>
</g>
<g>
</g>
<g>
</g>
<g>
</g>
<g>
</g>
<g>
</g>
<g>
</g>
<g>
</g>
<g>
</g>
<g>
</g>
<g>
</g>
<g>
</g>
<g>
</g>
<g>
</g>
<g>
</g>
<g>
</g>
</svg>
