<?xml version="1.0" encoding="utf-8"?>
<!-- Generator: Adobe Illustrator 19.2.1, SVG Export Plug-In . SVG Version: 6.00 Build 0)  -->
<svg version="1.0" id="Layer_1" xmlns="http://www.w3.org/2000/svg" xmlns:xlink="http://www.w3.org/1999/xlink" x="0px" y="0px"
	 viewBox="0 0 161.6666718 131" enable-background="new 0 0 161.6666718 131" xml:space="preserve">
<path fill="#A1C8B2" stroke="#000000" stroke-width="0.05" stroke-miterlimit="10" d="M178.9976654,3.1666653
	c-0.3474731,2.4526446-39.2170258-7.2511597-86.4960327,11.8333321c-3.8785324,1.5655985-3.5393066,1.5995569-6.3289795,2.6666727
	c-44.9654007,17.2002926-100.2462463-4.189908-99.5056-14.5000048C-12.566268-7.5059228,48.6414719-12.0265799,82.8323593-11.999999
	C139.616394-11.9558516,179.3506165,0.67534,178.9976654,3.1666653z"/>
<path fill="#86AE9E" stroke="#000000" stroke-width="0.05" stroke-miterlimit="10" d="M183.326355,21.091856
	C183.4913025,27.5882931,168.7771301,37.7519417,158,35.6666679c-4.3179626-0.8354874-7.0436249-3.4514542-12-2.6666718
	c-5.7635956,0.9125977-8.908493,5.5316086-11.3333282,8c-8.500473,8.6531677-23.8101349,6.8164444-49.6736526,3.7135468
	c-25.9508591-3.1133728-33.1236649-8.1519928-43.3709946-2.4158707c-6.861187,3.8406677-9.703495,9.4905472-14.2886925,8.3689957
	C21.1794777,49.1614189,22.8067131,38.1301842,15,29.9999981C4.5268517,19.092886-12.8650503,23.8840618-13.3403139,21.091856
	c-0.9010372-5.2936563,51.6579208-32.4032555,98.3333359-23.6216812c2.3655014,0.4450493,38.3061142,7.3019714,58.6736526,5.1964912
	c0.8921967-0.0922318,3.9281311-0.2837067,10-0.6666641c18.4039154-1.1607437,23.7079315-1.1314163,25.6666565,2.0000002
	C180.1448059,5.2973228,180.7094421,7.6503806,180,9.6666651c-0.8034058,2.2833405-2.675827,2.5293007-2.9069061,4.1064224
	C176.6677246,16.67626,183.2432709,17.8196011,183.326355,21.091856z"/>
<path fill="#779E90" stroke="#000000" stroke-width="0.05" stroke-miterlimit="10" d="M179,47.5729179
	c0.1970673,9.6968079-40.0561676,16.3941422-96.1750717,25.5000038
	c-87.3320007,14.1704941-99.9027405,8.5142746-105.4915924,0.59375C-31.0194817,61.8290596-26.8806171,40.5353813-16,29.333334
	c8.058856-8.2969284,18.0877457-10.1006393,37.3333321-11.3333359C42.6281128,16.6360455,60.3009491,15.5040789,82,22.6666698
	c17.9382553,5.921196,21.4592743,11.8437405,36.6666718,12.3333263c12.5026245,0.4025116,16.1394348-3.4069271,28.6441956-2.1746902
	C160.8695526,34.1614037,178.8630524,40.8344841,179,47.5729179z"/>
<path fill="#617F78" stroke="#000000" stroke-width="0.05" stroke-miterlimit="10" d="M183.3277283,78.029953
	c-18.0932159,19.3446426-55.3781738,25.3333359-98.3389359,25.3333359c-35.2580795,0-58.3551292-21.0158539-98.3389435-25.3333359
	C-15.6912708,77.777153-19.7869511,77.3835297-20,76c-0.7650356-4.9681015,51.3973274-20.4134407,104.9887924-23.3033867
	c42.0211868-2.2660141,100.1679459,2.3622437,102.3445358,16.9700584
	C187.7976532,72.7828674,185.6023865,75.5979614,183.3277283,78.029953z"/>
<path fill="#4A5C66" stroke="#000000" stroke-width="0.05" stroke-miterlimit="10" d="M177.3333282,116.6666641
	c-9.8624268,15.8642197-35.9562225,8.0190582-95.6666641,8c-62.5565643-0.0199738-84.4095917,8.5747757-98.3333282-8
	C-26.215889,105.2993088-29.1752548,85.4982529-21,76.6666718C-7.6564121,62.2518272,22.3781815,91.0738449,80.3333359,93.3333359
	C132.3355255,95.3607407,164.6822968,74.3594971,177,90.6666641
	C182.3586121,97.7608261,181.9300842,109.2725449,177.3333282,116.6666641z"/>
<path fill="#374455" stroke="#000000" stroke-width="0.05" stroke-miterlimit="10" d="M183.3277283,122.84832
	c-0.0331573-9.1726685-51.9565582-15.005661-91.8305283-19.4850311
	c-0.0000992-0.0000153-105.7213364-11.8765564-113.8305359,9.6367188c-2.3959618,6.356369-0.6666965,11.6665649-0.666666,11.6666565
	s0.3908272,1.2001495,1,2.3333435c13.7470503,25.5726089,113.4971008,15.3333359,113.4972,15.3333206
	C121.0203857,139.3027954,183.3640747,132.9032593,183.3277283,122.84832z"/>
<g>
</g>
<g>
</g>
<g>
</g>
<g>
</g>
<g>
</g>
<g>
</g>
<g>
</g>
<g>
</g>
<g>
</g>
<g>
</g>
<g>
</g>
<g>
</g>
<g>
</g>
<g>
</g>
<g>
</g>
</svg>
