<?xml version="1.0" encoding="utf-8"?>
<!-- Generator: Adobe Illustrator 19.2.1, SVG Export Plug-In . SVG Version: 6.00 Build 0)  -->
<svg version="1.1" id="Layer_1" xmlns="http://www.w3.org/2000/svg" xmlns:xlink="http://www.w3.org/1999/xlink" x="0px" y="0px"
	 viewBox="0 0 85.2 28" style="enable-background:new 0 0 85.2 28;" xml:space="preserve">
<style type="text/css">
	.st0{fill:none;stroke:#000000;stroke-miterlimit:10;}
	.st1{fill:none;stroke:#000000;stroke-width:0.75;stroke-miterlimit:10;}
	.st2{stroke:#000000;stroke-width:0.75;stroke-miterlimit:10;}
	.st3{fill:none;stroke:#000000;stroke-width:0.15;stroke-miterlimit:10;}
	.st4{fill:#FFFFFF;stroke:#000000;stroke-miterlimit:10;}
</style>
<polygon class="st0" points="55.4,10.7 79.7,22.9 24.1,22.5 "/>
<path class="st1" d="M9,8c0.4,1.1-0.1,2.2-1.2,2.6s-2.1-0.2-2.5-1.2C5,8.3,5.5,7.1,6.5,6.8C7.5,6.4,8.7,6.9,9,8z"/>
<ellipse transform="matrix(0.9807 -0.1955 0.1955 0.9807 -1.5459 1.5719)" class="st2" cx="7.2" cy="8.6" rx="0" ry="0"/>
<line class="st3" x1="6.4" y1="10.3" x2="7.2" y2="8.6"/>
<line class="st3" x1="7.8" y1="10.4" x2="7.2" y2="8.7"/>
<line class="st3" x1="8.9" y1="9.4" x2="7.4" y2="8.7"/>
<line class="st3" x1="6.6" y1="6.9" x2="7.1" y2="8.4"/>
<line class="st3" x1="7.9" y1="7" x2="7.3" y2="8.5"/>
<line class="st3" x1="5.6" y1="7.9" x2="7.2" y2="8.6"/>
<line class="st3" x1="5.4" y1="9.3" x2="7.2" y2="8.6"/>
<line class="st3" x1="8.9" y1="8" x2="7.4" y2="8.6"/>
<line class="st3" x1="5.4" y1="8.6" x2="7.2" y2="8.6"/>
<line class="st3" x1="5.8" y1="9.8" x2="7.2" y2="8.6"/>
<line class="st3" x1="7.2" y1="10.5" x2="7.2" y2="8.6"/>
<line class="st3" x1="6" y1="7.2" x2="7.2" y2="8.6"/>
<line class="st3" x1="7.3" y1="6.8" x2="7.2" y2="8.6"/>
<line class="st3" x1="8.6" y1="7.4" x2="7.2" y2="8.6"/>
<line class="st3" x1="9" y1="8.6" x2="7.2" y2="8.6"/>
<line class="st3" x1="8.4" y1="10" x2="7.2" y2="8.6"/>
<line class="st3" x1="7.3" y1="8.8" x2="7.3" y2="8.7"/>
<path d="M12.1,17.7c-0.2,0.1-0.3,0.2-0.4,0.2c-0.2,0.1-0.4,0.1-0.6,0c-0.2-0.1-0.3-0.2-0.4-0.5c-0.1-0.2-0.1-0.4-0.2-0.6
	s-0.1-0.5-0.2-0.8l-0.8-5.2l-1,0.4l-2.9,1.8L6,13.8l1.4-0.3L8,17.6c0,0.3,0.1,0.6,0.1,0.9c0,0.3,0.1,0.4,0.1,0.6
	C8.4,19.6,8.7,19.9,9,20c0.3,0.1,0.8,0.1,1.3-0.1c0.4-0.1,0.8-0.4,1.2-0.7c0.5-0.3,1-0.7,1.5-1.2l-0.3-0.8
	C12.5,17.4,12.3,17.6,12.1,17.7z"/>
<path d="M17.1,11.2l-1.5-1.5c0,0-0.1,0-0.2,0c-0.1,0-0.1,0-0.2,0.1c-0.3,0.1-0.6,0.3-0.7,0.6c-0.1,0.2-0.2,0.5-0.1,0.8
	c0.1,0.4,0.7,0.6,1.6,0.7c0.2,0,0.4,0,0.5,0.1c0.9,0.1,1.5,0.3,1.9,0.5c0.4,0.2,0.7,0.6,0.8,1c0.3,0.8,0.2,1.6-0.4,2.4
	c-0.5,0.8-1.3,1.4-2.4,1.8c-0.9,0.3-1.7,0.4-2.3,0.3c-0.7-0.1-1.1-0.5-1.3-1c-0.1-0.4-0.1-0.7,0-1c0.1-0.3,0.4-0.5,0.8-0.7
	c0.2-0.1,0.4-0.1,0.6-0.1s0.4,0,0.7,0.1l0.2,1.6c0.2,0,0.3,0,0.5,0s0.4-0.1,0.5-0.1c0.4-0.1,0.6-0.4,0.8-0.7
	c0.2-0.3,0.2-0.6,0.1-0.9c-0.2-0.4-0.7-0.7-1.6-0.7c-0.1,0-0.2,0-0.2,0c-0.9-0.1-1.6-0.2-2-0.4c-0.4-0.2-0.7-0.6-0.9-1.1
	c-0.3-0.8-0.2-1.6,0.3-2.3c0.5-0.8,1.3-1.4,2.4-1.8c0.8-0.3,1.5-0.4,2-0.3c0.5,0.1,0.9,0.4,1.1,0.9c0.1,0.4,0.1,0.7-0.1,1.1
	C17.9,10.8,17.6,11,17.1,11.2z"/>
<path d="M25.7,5.3l0.7-0.8l1.1-0.4l0.8,5.6c0,0.2,0.1,0.3,0.1,0.5c0,0.2,0.1,0.3,0.1,0.4c0.1,0.3,0.2,0.5,0.4,0.6
	c0.2,0.1,0.4,0.1,0.6,0c0.2-0.1,0.3-0.1,0.5-0.3s0.4-0.3,0.6-0.4l0.3,0.8c-0.5,0.4-0.9,0.8-1.3,1.1s-0.9,0.5-1.3,0.7
	c-0.5,0.2-0.9,0.2-1.2,0.1c-0.3-0.1-0.5-0.4-0.7-0.8c-0.4,0.6-0.7,1.1-1.1,1.5c-0.4,0.4-0.8,0.7-1.3,0.8c-0.7,0.3-1.4,0.2-2.1-0.2
	c-0.6-0.4-1.1-1.1-1.4-2C20.1,11.8,20,11,20,10.2c0.1-0.8,0.3-1.6,0.7-2.3c0.3-0.5,0.6-0.9,1.1-1.3c0.5-0.4,1-0.7,1.6-0.9
	c0.3-0.1,0.7-0.2,1-0.3C24.7,5.4,25.1,5.3,25.7,5.3z M24.3,6.4C24.2,6.4,24.2,6.4,24.3,6.4c-0.1,0-0.2,0-0.2,0.1
	c-0.7,0.3-1.1,0.8-1.3,1.8s-0.1,1.9,0.3,3.1c0.2,0.6,0.5,1,0.8,1.2c0.3,0.2,0.7,0.3,1.1,0.1c0.2-0.1,0.3-0.2,0.5-0.3
	c0.2-0.2,0.4-0.4,0.7-0.7l-0.8-4.5L24.3,6.4z"/>
<polygon class="st4" points="41.4,10.7 65.7,22.9 10.1,22.5 "/>
<polygon class="st0" points="85.2,2.1 85.2,2.1 85.2,2.1 "/>
</svg>
