<svg id="Layer_1" data-name="Layer 1" xmlns="http://www.w3.org/2000/svg" xmlns:xlink="http://www.w3.org/1999/xlink" viewBox="0 0 103.51 80.86"><defs><style>.cls-1{fill:#22b573;}.cls-2{fill:none;stroke:blue;stroke-miterlimit:10;stroke-width:2px;}.cls-3{fill:#fff;}.cls-4{font-size:12px;font-family:Myriad Pro;}</style><symbol id="circle-pattern" data-name="circle-pattern" viewBox="0 0 103.51 80.86"><ellipse class="cls-1" cx="47.76" cy="48.34" rx="47.69" ry="32.44"/><path d="M95.46,48.34l0,0.73,0,0.89-0.13,1.22a23.36,23.36,0,0,1-2.37,7.67,31.18,31.18,0,0,1-7.8,9.71,47.94,47.94,0,0,1-14,8.14,63,63,0,0,1-18.76,4A69.36,69.36,0,0,1,31,78.79,51.83,51.83,0,0,1,10.62,68.72a32.37,32.37,0,0,1-7.57-9A23,23,0,0,1,3,36.92a32.43,32.43,0,0,1,7.56-9A51.73,51.73,0,0,1,31,17.84a69.39,69.39,0,0,1,21.32-1.91,63.38,63.38,0,0,1,18.76,4,47.93,47.93,0,0,1,14,8.15,31.18,31.18,0,0,1,7.8,9.72,23.36,23.36,0,0,1,2.36,7.67l0.13,1.22,0,0.89Zm0,0,0-.73,0-.89L95.24,45.5a23.31,23.31,0,0,0-2.39-7.65A31.08,31.08,0,0,0,85,28.2a47.77,47.77,0,0,0-14-8.06,64.7,64.7,0,0,0-18.7-4,69.15,69.15,0,0,0-21.25,1.89,51.6,51.6,0,0,0-20.38,10A32.22,32.22,0,0,0,3.18,37a22.84,22.84,0,0,0,0,22.67,32.28,32.28,0,0,0,7.52,9,51.49,51.49,0,0,0,20.41,10,69.19,69.19,0,0,0,21.26,1.86,65.07,65.07,0,0,0,18.71-4,47.76,47.76,0,0,0,14-8.06,31.09,31.09,0,0,0,7.81-9.66,23.31,23.31,0,0,0,2.39-7.65L95.37,50l0-.89Z"/><polyline class="cls-2" points="9.76 42.77 12.69 48.77 15.61 42.77 18.53 48.77 21.45 42.77 24.37 48.77 27.29 42.77 30.21 48.77 33.14 42.77 36.06 48.77 38.98 42.77 41.89 48.77 44.82 42.77 47.74 48.77 50.66 42.77 53.58 48.77 56.51 42.77 59.43 48.77 62.35 42.77 65.28 48.77 68.2 42.77 71.12 48.77 74.05 42.77 76.97 48.77 79.9 42.77 82.83 48.77 85.76 42.77"/><polyline class="cls-2" points="9.76 55.77 12.69 61.77 15.61 55.77 18.53 61.77 21.45 55.77 24.37 61.77 27.29 55.77 30.21 61.77 33.14 55.77 36.06 61.77 38.98 55.77 41.89 61.77 44.82 55.77 47.74 61.77 50.66 55.77 53.58 61.77 56.51 55.77 59.43 61.77 62.35 55.77 65.28 61.77 68.2 55.77 71.12 61.77 74.05 55.77 76.97 61.77 79.9 55.77 82.83 61.77 85.76 55.77"/><text/><polyline class="cls-2" points="9.76 30.77 12.69 36.77 15.61 30.77 18.53 36.77 21.45 30.77 24.37 36.77 27.29 30.77 30.21 36.77 33.14 30.77 36.06 36.77 38.98 30.77 41.89 36.77 44.82 30.77 47.74 36.77 50.66 30.77 53.58 36.77 56.51 30.77 59.43 36.77 62.35 30.77 65.28 36.77 68.2 30.77 71.12 36.77 74.05 30.77 76.97 36.77 79.9 30.77 82.83 36.77 85.76 30.77"/><text/><polygon class="cls-3" points="44.8 40.4 45.83 42.59 43.78 42.59 44.8 40.4"/><polygon class="cls-3" points="56.53 40.4 57.55 42.59 55.51 42.59 56.53 40.4"/><polygon class="cls-3" points="50.67 40.4 51.69 42.59 49.65 42.59 50.67 40.4"/><polygon class="cls-3" points="62.38 40.4 63.4 42.59 61.36 42.59 62.38 40.4"/><polygon class="cls-3" points="68.21 40.4 69.23 42.59 67.19 42.59 68.21 40.4"/><polygon class="cls-3" points="74.08 40.4 75.11 42.59 73.06 42.59 74.08 40.4"/><polygon class="cls-3" points="79.92 53.35 80.94 55.55 78.9 55.55 79.92 53.35"/><polygon class="cls-3" points="79.92 40.4 80.94 42.59 78.9 42.59 79.92 40.4"/><polygon class="cls-3" points="74.08 53.35 75.11 55.55 73.06 55.55 74.08 53.35"/><polygon class="cls-3" points="68.21 53.35 69.23 55.55 67.19 55.55 68.21 53.35"/><polygon class="cls-3" points="62.38 53.35 63.4 55.55 61.36 55.55 62.38 53.35"/><polygon class="cls-3" points="56.53 53.35 57.55 55.55 55.51 55.55 56.53 53.35"/><polygon class="cls-3" points="50.67 53.35 51.69 55.55 49.65 55.55 50.67 53.35"/><polygon class="cls-3" points="44.8 53.35 45.83 55.55 43.78 55.55 44.8 53.35"/><polygon class="cls-3" points="38.95 53.35 39.97 55.55 37.93 55.55 38.95 53.35"/><polygon class="cls-3" points="38.95 40.4 39.97 42.59 37.93 42.59 38.95 40.4"/><polygon class="cls-3" points="33.12 40.4 34.14 42.59 32.1 42.59 33.12 40.4"/><polygon class="cls-3" points="33.12 53.35 34.14 55.55 32.1 55.55 33.12 53.35"/><polygon class="cls-3" points="27.27 40.4 28.29 42.59 26.25 42.59 27.27 40.4"/><polygon class="cls-3" points="21.45 40.4 22.47 42.59 20.43 42.59 21.45 40.4"/><polygon class="cls-3" points="27.27 53.35 28.29 55.55 26.25 55.55 27.27 53.35"/><polygon class="cls-3" points="21.45 53.35 22.47 55.55 20.43 55.55 21.45 53.35"/><polygon class="cls-3" points="15.62 53.35 16.64 55.55 14.6 55.55 15.62 53.35"/><polygon class="cls-3" points="79.92 28.38 80.94 30.57 78.9 30.57 79.92 28.38"/><polygon class="cls-3" points="74.06 28.38 75.08 30.57 73.04 30.57 74.06 28.38"/><polygon class="cls-3" points="68.21 28.38 69.23 30.57 67.19 30.57 68.21 28.38"/><polygon class="cls-3" points="62.38 28.38 63.4 30.57 61.36 30.57 62.38 28.38"/><polygon class="cls-3" points="56.53 28.38 57.55 30.57 55.51 30.57 56.53 28.38"/><polygon class="cls-3" points="50.67 28.38 51.69 30.57 49.65 30.57 50.67 28.38"/><polygon class="cls-3" points="44.8 28.38 45.83 30.57 43.78 30.57 44.8 28.38"/><polygon class="cls-3" points="38.95 28.38 39.97 30.57 37.93 30.57 38.95 28.38"/><polygon class="cls-3" points="33.12 28.38 34.14 30.57 32.1 30.57 33.12 28.38"/><polygon class="cls-3" points="27.27 28.38 28.29 30.57 26.25 30.57 27.27 28.38"/><polygon class="cls-3" points="21.45 28.38 22.47 30.57 20.43 30.57 21.45 28.38"/><polygon class="cls-3" points="15.62 28.38 16.64 30.57 14.6 30.57 15.62 28.38"/><polygon class="cls-3" points="15.62 40.4 16.64 42.59 14.6 42.59 15.62 40.4"/><text/><text class="cls-4" transform="translate(42.94 75.52)">M</text></symbol></defs><title>mountains-three</title><use width="103.51" height="80.86" transform="translate(0 0)" xlink:href="#circle-pattern"/></svg>