<?xml version="1.0" encoding="utf-8"?>
<!-- Generator: Adobe Illustrator 19.2.1, SVG Export Plug-In . SVG Version: 6.00 Build 0)  -->
<svg version="1.1" xmlns="http://www.w3.org/2000/svg" xmlns:xlink="http://www.w3.org/1999/xlink" x="0px" y="0px"
	 viewBox="0 0 820 422" style="enable-background:new 0 0 820 422;" xml:space="preserve">
<style type="text/css">
	.st0{display:none;}
	.st1{display:inline;}
	.st2{fill:#FFFFFF;stroke:#231F20;stroke-linecap:round;stroke-miterlimit:10;}
	.st3{fill:#FF55F6;stroke:#231F20;stroke-miterlimit:10;}
	.st4{fill:#FF2AC4;stroke:#231F20;stroke-width:4;stroke-miterlimit:10;}
	.st5{fill:#FF0087;stroke:#231F20;stroke-width:2;stroke-miterlimit:10;}
	.st6{fill:#E6E7E8;stroke:#231F20;stroke-width:8;stroke-linecap:round;stroke-miterlimit:10;}
	.st7{fill:#00B2FF;stroke:#231F20;stroke-width:2;stroke-linecap:round;stroke-miterlimit:10;}
	.st8{fill:#FFFFFF;stroke:#231F20;stroke-width:2;stroke-linecap:round;stroke-miterlimit:10;}
</style>
<g id="Layer_1" class="st0">
	<g class="st1">
		<ellipse class="st2" cx="337.7" cy="204.8" rx="165.4" ry="120.3"/>
		<path class="st3" d="M290.1,238.2L290.1,238.2c-24,2.6-45.5-14.6-48.2-38.6v0c-2.6-24,14.6-45.5,38.6-48.2l0,0
			c24-2.6,45.5,14.6,48.2,38.6l0,0C331.4,214,314.1,235.6,290.1,238.2z"/>
		<path class="st4" d="M308,278.8L308,278.8c-20.4,0-37-16.6-37-37v0c0-20.4,16.6-37,37-37h0c20.4,0,37,16.6,37,37v0
			C345,262.3,328.4,278.8,308,278.8z"/>
		<path class="st5" d="M252.9,274L252.9,274c-20.4,0-37-16.6-37-37v0c0-20.4,16.6-37,37-37h0c20.4,0,37,16.6,37,37v0
			C289.9,257.4,273.4,274,252.9,274z"/>
		<circle class="st6" cx="397.7" cy="188" r="42.3"/>
	</g>
</g>
<g id="pentools">
	<polygon class="st7" points="260.1,342 669.1,342 449.1,76 	"/>
	<polygon class="st7" points="406.8,362 815.8,362 652.8,140.3 	"/>
	<polygon class="st7" points="11.2,373.6 486.9,375.9 304.6,154.3 	"/>
	<polygon class="st8" points="228.6,210.3 271.4,265.1 297.4,228.9 316,251.1 316,219.6 353.6,237.7 362.3,224.4 304.6,154.3 	"/>
	<polygon class="st8" points="399.5,147 435,174.5 449.8,154.3 464.6,188.5 486.9,167.7 506.1,179.2 512.8,154.3 449.1,77.3 	"/>
	<polygon class="st8" points="593.8,193.5 620.2,219.6 638,193.5 655.8,233.6 669.1,219.6 689.9,233.6 699.3,203.6 652.8,140.3 	"/>
</g>
</svg>
